<svg
  xmlns="http://www.w3.org/2000/svg"
  viewBox="0 0 20 20"
  fill="currentColor"
>
  <path
    d="M18 15.5C18 15.1022 17.842 14.7206 17.5607 14.4393C17.2794 14.158 16.8978 14 16.5 14L3.5 14C3.10218 14 2.72065 14.158 2.43934 14.4393C2.15804 14.7206 2 15.1022 2 15.5L2 16.5C2 16.8978 2.15804 17.2794 2.43934 17.5607C2.72064 17.842 3.10218 18 3.5 18L16.5 18C16.8978 18 17.2794 17.842 17.5607 17.5607C17.842 17.2794 18 16.8978 18 16.5L18 15.5ZM14 9.5C14 9.10218 13.842 8.72064 13.5607 8.43934C13.2794 8.15803 12.8978 8 12.5 8L3.5 8C3.10218 8 2.72065 8.15803 2.43934 8.43934C2.15804 8.72064 2 9.10217 2 9.5L2 10.5C2 10.8978 2.15804 11.2794 2.43934 11.5607C2.72065 11.842 3.10218 12 3.5 12L12.5 12C12.8978 12 13.2794 11.842 13.5607 11.5607C13.842 11.2794 14 10.8978 14 10.5L14 9.5ZM10 3.5C10 3.10217 9.84197 2.72064 9.56066 2.43934C9.27936 2.15803 8.89783 2 8.5 2L3.5 2C3.10218 2 2.72065 2.15803 2.43934 2.43934C2.15804 2.72064 2 3.10217 2 3.5L2 4.5C2 4.89782 2.15804 5.27936 2.43934 5.56066C2.72065 5.84196 3.10218 6 3.5 6L8.5 6C8.89783 6 9.27936 5.84196 9.56066 5.56066C9.84197 5.27936 10 4.89782 10 4.5L10 3.5Z"
  />
</svg>