<?xml version="1.0" encoding="UTF-8" standalone="no"?>
<!DOCTYPE svg PUBLIC "-//W3C//DTD SVG 1.1//EN" "http://www.w3.org/Graphics/SVG/1.1/DTD/svg11.dtd">
<svg xmlns="http://www.w3.org/2000/svg" version="1.1" viewBox="0.00 0.00 1024.00 1024.00">
<path fill="#979da7" fill-opacity="0.996" d="
  M 760.99 239.54
  L 709.54 239.85
  L 708.86 240.08
  L 708.63 240.77
  L 708.63 244.48
  L 708.64 244.63
  L 708.92 245.10
  L 709.44 245.29
  L 749.96 245.29
  L 750.03 245.30
  L 750.21 245.46
  L 750.19 245.71
  L 750.14 245.79
  L 750.14 245.79
  L 749.71 246.18
  L 749.08 246.43
  L 710.23 245.81
  L 709.29 245.66
  L 708.61 245.24
  L 708.61 245.24
  L 708.21 244.56
  L 708.07 243.60
  L 708.07 241.35
  L 708.21 240.36
  L 708.64 239.64
  L 708.64 239.64
  L 709.35 239.21
  L 710.34 239.06
  L 750.00 239.03
  L 756.96 239.19
  L 760.99 239.54
  Z"
/>
<path fill="#20365b" d="
  M 760.99 239.54
  L 761.03 296.51
  L 760.89 296.85
  L 760.56 296.99
  L 760.56 296.99
  L 755.29 296.99
  L 755.08 296.92
  L 755.00 296.69
  L 755.00 250.92
  L 754.78 250.22
  L 754.10 250.51
  L 589.46 394.72
  L 589.06 394.68
  L 589.04 394.65
  L 588.33 393.56
  L 587.47 392.67
  L 587.47 392.67
  L 586.29 391.89
  L 584.91 391.36
  L 584.63 391.11
  L 584.66 390.73
  L 584.74 390.64
  L 749.08 246.43
  L 749.71 246.18
  L 750.14 245.79
  L 750.14 245.79
  L 750.19 245.71
  L 750.21 245.46
  L 750.03 245.30
  L 750.03 245.30
  L 749.96 245.29
  L 709.44 245.29
  L 708.87 245.05
  L 708.63 244.48
  L 708.63 240.77
  L 708.86 240.08
  L 709.54 239.85
  L 760.99 239.54
  Z"
/>
<path fill="#20365b" d="
  M 498.49 355.04
  L 498.14 358.62
  L 497.09 362.06
  L 495.40 365.23
  L 493.12 368.01
  L 490.34 370.29
  L 487.17 371.98
  L 483.73 373.03
  L 480.15 373.38
  L 476.57 373.03
  L 473.13 371.98
  L 469.96 370.29
  L 467.18 368.01
  L 464.90 365.23
  L 463.21 362.06
  L 462.16 358.62
  L 461.81 355.04
  L 462.16 351.46
  L 463.21 348.02
  L 464.90 344.85
  L 467.18 342.07
  L 469.96 339.79
  L 473.13 338.10
  L 476.57 337.05
  L 480.15 336.70
  L 483.73 337.05
  L 487.17 338.10
  L 490.34 339.79
  L 493.12 342.07
  L 495.40 344.85
  L 497.09 348.02
  L 498.14 351.46
  L 498.49 355.04
  Z
  M 477.1851 366.9173
  L 479.5184 367.2486
  L 481.8741 367.1111
  L 484.1616 366.5102
  L 486.2930 365.4688
  L 488.1864 364.0271
  L 489.7690 362.2403
  L 490.9801 360.1773
  L 491.7730 357.9172
  L 492.1174 355.5469
  L 492.0000 353.1575
  L 491.4252 350.8409
  L 490.4152 348.6860
  L 489.0088 346.7756
  L 487.2601 345.1833
  L 485.2362 343.9701
  L 483.0149 343.1827
  L 480.6816 342.8514
  L 478.3259 342.9889
  L 476.0384 343.5898
  L 473.9070 344.6312
  L 472.0136 346.0729
  L 470.4310 347.8597
  L 469.2199 349.9227
  L 468.4270 352.1828
  L 468.0826 354.5531
  L 468.2000 356.9425
  L 468.7748 359.2591
  L 469.7848 361.4140
  L 471.1912 363.3244
  L 472.9399 364.9167
  L 474.9638 366.1299
  L 477.1851 366.9173
  Z"
/>
<path fill="#20365b" d="
  M 750.95 614.04
  L 750.76 614.76
  L 749.95 615.33
  L 748.50 615.49
  L 731.34 615.24
  L 712.73 615.20
  L 671.21 615.78
  L 670.85 616.00
  L 670.38 615.89
  L 670.09 615.61
  L 669.99 615.22
  L 669.99 351.78
  L 670.06 351.47
  L 670.33 351.16
  L 670.73 351.04
  L 750.72 351.04
  L 750.98 351.31
  L 750.95 614.04
  Z
  M 676.10 608.64
  L 676.18 609.42
  L 676.18 609.42
  L 676.54 609.70
  L 677.12 609.82
  L 678.99 609.60
  L 742.77 610.02
  L 743.75 609.89
  L 744.44 609.48
  L 744.44 609.48
  L 744.86 608.78
  L 745.00 607.81
  L 745.00 358.11
  L 745.00 358.11
  L 744.66 357.29
  L 743.83 356.95
  L 676.82 356.95
  L 676.27 357.14
  L 675.98 357.64
  L 675.96 357.81
  L 676.10 608.64
  Z"
/>
<path fill="#20365b" d="
  M 533.16 371.59
  L 563.93 391.02
  L 564.01 391.12
  L 563.93 391.22
  L 558.08 394.99
  L 557.95 395.03
  L 557.75 394.96
  L 551.69 390.59
  L 543.89 385.56
  L 529.88 376.79
  L 515.93 367.91
  L 508.05 363.01
  L 501.49 359.42
  L 501.34 359.27
  L 501.33 359.14
  L 502.22 352.23
  L 502.27 352.12
  L 502.40 352.15
  L 533.16 371.59
  Z"
/>
<rect fill="#20365b" x="682.00" y="362.01" width="57.04" height="242.16" rx="0.26"/>
<rect fill="#20365b" x="-58.12" y="-3.11" transform="translate(398.69,403.27) rotate(-40.1)" width="116.24" height="6.22" rx="1.08"/>
<path fill="#20365b" d="
  M 529.09 394.03
  L 525.82 398.88
  L 525.39 398.97
  L 489.98 375.17
  L 489.86 375.02
  L 489.97 374.66
  L 495.07 371.02
  L 495.10 371.01
  L 495.42 371.02
  L 529.00 393.60
  L 529.14 393.84
  L 529.09 394.03
  Z"
/>
<path fill="#20365b" d="
  M 466.04 371.96
  L 472.06 375.44
  L 472.10 375.62
  L 472.08 375.63
  L 462.05 383.78
  L 443.55 399.31
  L 408.60 429.06
  L 377.09 456.26
  L 376.24 456.60
  L 375.45 456.14
  L 373.17 453.54
  L 372.87 453.01
  L 372.79 452.41
  L 372.95 451.83
  L 373.32 451.35
  L 430.43 402.17
  L 445.78 389.12
  L 460.03 377.27
  L 462.75 374.86
  L 465.53 372.04
  L 465.76 371.90
  L 466.04 371.96
  Z"
/>
<path fill="#20365b" d="
  M 573.2027 429.5000
  L 569.6416 429.1467
  L 566.2162 428.0879
  L 563.0580 426.3645
  L 560.2884 424.0425
  L 558.0138 421.2112
  L 556.3217 417.9794
  L 555.2771 414.4714
  L 554.9200 410.8219
  L 555.2643 407.1711
  L 556.2967 403.6594
  L 557.9776 400.4218
  L 560.2422 397.5826
  L 563.0037 395.2509
  L 566.1559 393.5164
  L 569.5776 392.4457
  L 573.1373 392.0800
  L 576.6984 392.4333
  L 580.1238 393.4921
  L 583.2820 395.2155
  L 586.0516 397.5375
  L 588.3262 400.3688
  L 590.0183 403.6006
  L 591.0629 407.1086
  L 591.4200 410.7581
  L 591.0757 414.4089
  L 590.0433 417.9206
  L 588.3624 421.1582
  L 586.0978 423.9974
  L 583.3363 426.3291
  L 580.1841 428.0636
  L 576.7624 429.1343
  L 573.2027 429.5000
  Z
  M 576.7039 422.7368
  L 578.8740 421.8515
  L 580.8257 420.5385
  L 582.4839 418.8482
  L 583.7850 416.8455
  L 584.6789 414.6074
  L 585.1313 412.2200
  L 585.1248 409.7748
  L 584.6597 407.3660
  L 583.7537 405.0861
  L 582.4419 403.0227
  L 580.7744 401.2551
  L 578.8155 399.8513
  L 576.6405 398.8651
  L 574.3328 398.3345
  L 571.9812 398.2798
  L 569.6761 398.7032
  L 567.5060 399.5885
  L 565.5543 400.9015
  L 563.8961 402.5918
  L 562.5950 404.5945
  L 561.7011 406.8326
  L 561.2487 409.2200
  L 561.2552 411.6652
  L 561.7203 414.0740
  L 562.6263 416.3539
  L 563.9381 418.4173
  L 565.6056 420.1849
  L 567.5645 421.5887
  L 569.7395 422.5749
  L 572.0472 423.1055
  L 574.3988 423.1602
  L 576.7039 422.7368
  Z"
/>
<path fill="#20365b" d="
  M 650.83 446.16
  L 650.37 451.59
  L 650.21 458.88
  L 650.27 601.51
  L 650.43 607.55
  L 650.90 611.71
  L 650.54 612.25
  L 650.40 613.15
  L 650.67 614.23
  L 650.05 615.15
  L 649.49 615.46
  L 570.64 615.40
  L 569.90 615.15
  L 569.66 614.41
  L 569.66 494.22
  L 569.60 494.03
  L 569.40 493.96
  L 569.09 493.96
  L 568.92 494.13
  L 568.90 502.54
  L 569.14 446.53
  L 569.25 446.26
  L 569.52 446.15
  L 650.83 446.16
  Z
  M 575.30 480.25
  L 575.37 609.06
  L 575.56 609.52
  L 576.01 609.70
  L 576.02 609.70
  L 582.80 609.59
  L 628.00 610.16
  L 634.98 609.94
  L 642.26 609.69
  L 642.93 609.55
  L 643.49 609.17
  L 643.87 608.60
  L 644.00 607.93
  L 644.00 453.02
  L 643.71 452.32
  L 643.01 452.03
  L 579.52 451.86
  L 577.52 452.00
  L 575.74 452.46
  L 575.32 452.79
  L 575.16 453.30
  L 575.30 480.25
  Z"
/>
<path fill="#979da7" fill-opacity="0.996" d="
  M 650.90 611.71
  L 650.43 607.55
  L 650.27 601.51
  L 650.21 458.88
  L 650.37 451.59
  L 650.83 446.16
  L 650.90 611.71
  Z"
/>
<path fill="#20365b" d="
  M 348.66 474.62
  L 348.30 478.23
  L 347.25 481.71
  L 345.54 484.91
  L 343.24 487.72
  L 340.43 490.02
  L 337.23 491.73
  L 333.75 492.78
  L 330.14 493.14
  L 326.53 492.78
  L 323.05 491.73
  L 319.85 490.02
  L 317.04 487.72
  L 314.74 484.91
  L 313.03 481.71
  L 311.98 478.23
  L 311.62 474.62
  L 311.98 471.01
  L 313.03 467.53
  L 314.74 464.33
  L 317.04 461.52
  L 319.85 459.22
  L 323.05 457.51
  L 326.53 456.46
  L 330.14 456.10
  L 333.75 456.46
  L 337.23 457.51
  L 340.43 459.22
  L 343.24 461.52
  L 345.54 464.33
  L 347.25 467.53
  L 348.30 471.01
  L 348.66 474.62
  Z
  M 330.9887 486.9585
  L 333.3361 486.5535
  L 335.5595 485.6930
  L 337.5735 484.4100
  L 339.3007 482.7538
  L 340.6747 480.7882
  L 341.6427 478.5886
  L 342.1675 476.2395
  L 342.2289 473.8313
  L 341.8246 471.4565
  L 340.9701 469.2063
  L 339.6983 467.1672
  L 338.0580 465.4176
  L 336.1123 464.0248
  L 333.9359 463.0421
  L 331.6125 462.5075
  L 329.2313 462.4415
  L 326.8839 462.8465
  L 324.6605 463.7070
  L 322.6465 464.9900
  L 320.9193 466.6462
  L 319.5453 468.6118
  L 318.5773 470.8114
  L 318.0525 473.1605
  L 317.9911 475.5687
  L 318.3954 477.9435
  L 319.2499 480.1937
  L 320.5217 482.2328
  L 322.1620 483.9824
  L 324.1077 485.3752
  L 326.2841 486.3579
  L 328.6075 486.8925
  L 330.9887 486.9585
  Z"
/>
<path fill="#979da7" fill-opacity="0.996" d="
  M 638.96 457.53
  L 580.80 457.73
  L 584.57 457.22
  L 589.75 457.03
  L 632.25 456.90
  L 635.90 457.05
  L 638.96 457.53
  Z"
/>
<path fill="#20365b" d="
  M 581.19 603.98
  L 581.21 593.25
  L 580.80 457.73
  L 638.96 457.53
  L 639.24 603.36
  L 639.02 604.01
  L 638.39 604.22
  L 581.19 603.98
  Z"
/>
<path fill="#20365b" d="
  M 256.14 463.64
  L 256.14 458.39
  L 256.24 458.14
  L 256.49 458.04
  L 314.48 458.04
  L 314.73 458.14
  L 314.77 458.58
  L 311.25 463.83
  L 310.96 463.99
  L 256.49 463.99
  L 256.24 463.89
  L 256.14 463.64
  Z"
/>
<path fill="#20365b" d="
  M 218.1164 496.9889
  L 214.6614 495.9435
  L 211.4780 494.2305
  L 208.6887 491.9156
  L 206.4005 489.0879
  L 204.7014 485.8560
  L 203.6567 482.3441
  L 203.3065 478.6871
  L 203.6644 475.0257
  L 204.7165 471.5004
  L 206.4224 468.2469
  L 208.7166 465.3900
  L 211.5109 463.0397
  L 214.6979 461.2862
  L 218.1552 460.1968
  L 221.7498 459.8136
  L 225.3436 460.1511
  L 228.7986 461.1965
  L 231.9820 462.9095
  L 234.7713 465.2244
  L 237.0595 468.0521
  L 238.7586 471.2840
  L 239.8033 474.7959
  L 240.1535 478.4529
  L 239.7956 482.1143
  L 238.7435 485.6396
  L 237.0376 488.8931
  L 234.7434 491.7500
  L 231.9491 494.1003
  L 228.7621 495.8538
  L 225.3048 496.9432
  L 221.7102 497.3264
  L 218.1164 496.9889
  Z
  M 221.9587 491.0981
  L 224.3011 490.8164
  L 226.5450 490.0641
  L 228.6043 488.8701
  L 230.3998 487.2802
  L 231.8625 485.3557
  L 232.9363 483.1703
  L 233.5797 480.8082
  L 233.7682 478.3600
  L 233.4944 475.9200
  L 232.7689 473.5817
  L 231.6196 471.4352
  L 230.0906 469.5628
  L 228.2407 468.0366
  L 226.1409 466.9152
  L 223.8721 466.2417
  L 221.5213 466.0419
  L 219.1789 466.3236
  L 216.9350 467.0759
  L 214.8757 468.2699
  L 213.0802 469.8598
  L 211.6175 471.7843
  L 210.5437 473.9697
  L 209.9003 476.3318
  L 209.7118 478.7800
  L 209.9856 481.2200
  L 210.7111 483.5583
  L 211.8604 485.7048
  L 213.3894 487.5772
  L 215.2393 489.1034
  L 217.3391 490.2248
  L 219.6079 490.8983
  L 221.9587 491.0981
  Z"
/>
<path fill="#979da7" fill-opacity="0.996" d="
  M 575.30 480.25
  L 575.43 481.18
  L 575.43 481.18
  L 575.89 485.70
  L 576.04 490.25
  L 576.12 608.24
  L 576.29 608.70
  L 576.73 608.92
  L 582.80 609.59
  L 576.02 609.70
  L 576.01 609.70
  L 575.56 609.52
  L 575.37 609.06
  L 575.30 480.25
  Z"
/>
<path fill="#20365b" d="
  M 447.74 615.76
  L 370.25 615.39
  L 369.85 615.23
  L 369.67 614.83
  L 369.57 603.75
  L 369.70 566.76
  L 369.74 546.75
  L 369.78 525.46
  L 369.36 503.39
  L 369.36 503.37
  L 369.34 503.37
  L 369.33 503.38
  L 369.32 503.39
  L 369.08 507.22
  L 369.12 493.45
  L 369.12 493.45
  L 369.25 493.15
  L 369.56 493.02
  L 449.27 493.02
  L 449.79 493.23
  L 450.00 493.75
  L 450.00 615.13
  L 449.88 615.56
  L 449.53 615.82
  L 448.74 615.98
  L 447.74 615.76
  Z
  M 375.57 500.44
  L 375.17 505.09
  L 375.01 510.07
  L 374.99 550.79
  L 375.48 583.43
  L 375.41 595.60
  L 375.24 607.97
  L 375.36 608.85
  L 375.73 609.47
  L 376.35 609.85
  L 377.24 609.98
  L 442.89 609.98
  L 443.19 609.94
  L 443.79 609.54
  L 444.02 608.85
  L 444.02 500.02
  L 443.72 499.28
  L 442.98 498.98
  L 377.22 498.98
  L 376.63 499.09
  L 376.11 499.40
  L 375.75 499.87
  L 375.57 500.44
  Z"
/>
<path fill="#20365b" d="
  M 550.59 576.27
  L 550.16 591.64
  L 550.25 601.69
  L 550.64 611.74
  L 550.43 612.88
  L 550.48 614.11
  L 550.18 614.76
  L 549.73 615.20
  L 549.73 615.20
  L 548.75 615.46
  L 472.00 615.60
  L 471.13 615.77
  L 470.54 615.90
  L 469.97 615.87
  L 469.50 614.89
  L 469.38 613.50
  L 469.62 602.81
  L 469.65 591.53
  L 469.09 567.18
  L 469.13 493.40
  L 469.24 493.13
  L 469.51 493.02
  L 549.23 493.02
  L 549.85 493.29
  L 550.07 493.92
  L 550.07 493.97
  L 549.98 495.96
  L 550.22 497.87
  L 550.23 497.91
  L 550.50 499.91
  L 550.43 501.73
  L 550.13 504.74
  L 550.02 508.01
  L 549.99 567.75
  L 550.59 576.27
  Z
  M 475.85 498.91
  L 475.34 504.69
  L 475.17 511.28
  L 475.46 560.94
  L 475.28 608.67
  L 475.28 608.68
  L 475.59 609.41
  L 476.33 609.69
  L 481.00 609.66
  L 485.64 609.86
  L 494.89 610.02
  L 528.54 609.67
  L 543.48 609.66
  L 543.48 609.66
  L 544.16 609.37
  L 544.44 608.69
  L 544.52 571.78
  L 544.68 538.56
  L 544.45 503.27
  L 544.62 501.26
  L 544.59 500.07
  L 544.18 499.33
  L 544.06 499.24
  L 475.85 498.91
  Z"
/>
<path fill="#979da7" fill-opacity="0.996" d="
  M 650.67 614.23
  L 650.82 614.87
  L 650.71 615.34
  L 650.71 615.34
  L 650.27 615.66
  L 649.50 615.78
  L 610.26 616.01
  L 571.04 615.77
  L 570.15 615.63
  L 569.51 615.25
  L 569.51 615.25
  L 569.12 614.60
  L 568.99 613.69
  L 568.90 502.54
  L 568.92 494.13
  L 568.94 494.06
  L 569.09 493.96
  L 569.40 493.96
  L 569.60 494.02
  L 569.66 494.22
  L 569.66 614.41
  L 569.90 615.15
  L 570.64 615.40
  L 649.49 615.46
  L 650.05 615.15
  L 650.67 614.23
  Z"
/>
<path fill="#979da7" fill-opacity="0.996" d="
  M 528.54 609.67
  L 543.29 608.78
  L 543.75 608.56
  L 543.94 608.09
  L 544.06 499.24
  L 544.18 499.33
  L 544.59 500.07
  L 544.62 501.26
  L 544.45 503.27
  L 544.68 538.56
  L 544.52 571.78
  L 544.44 608.69
  L 544.16 609.37
  L 543.48 609.66
  L 543.48 609.66
  L 528.54 609.67
  Z"
/>
<path fill="#979da7" fill-opacity="0.996" d="
  M 475.85 498.91
  L 476.13 547.00
  L 476.07 551.29
  L 475.46 560.94
  L 475.17 511.28
  L 475.34 504.69
  L 475.85 498.91
  Z"
/>
<path fill="#979da7" fill-opacity="0.996" d="
  M 447.74 615.76
  L 369.51 615.90
  L 369.12 615.77
  L 368.99 615.38
  L 369.08 507.22
  L 369.32 503.39
  L 369.33 503.38
  L 369.34 503.37
  L 369.36 503.37
  L 369.36 503.39
  L 369.78 525.46
  L 369.74 546.75
  L 369.70 566.76
  L 369.57 603.75
  L 369.67 614.83
  L 369.85 615.23
  L 370.25 615.39
  L 447.74 615.76
  Z"
/>
<path fill="#20365b" d="
  M 438.67 505.24
  L 438.42 505.60
  L 438.29 506.23
  L 438.46 554.74
  L 438.34 603.24
  L 438.59 604.02
  L 439.07 604.25
  L 381.32 604.21
  L 381.01 604.11
  L 380.90 603.79
  L 380.90 505.99
  L 381.20 505.25
  L 381.94 504.95
  L 438.67 505.24
  Z"
/>
<path fill="#20365b" d="
  M 538.72 604.11
  L 481.22 604.11
  L 481.05 604.06
  L 480.91 603.80
  L 480.91 505.25
  L 481.00 505.03
  L 481.22 504.94
  L 538.72 504.94
  L 539.03 505.25
  L 539.03 603.80
  L 538.72 604.11
  Z"
/>
<path fill="#979da7" fill-opacity="0.996" d="
  M 438.67 505.24
  L 438.76 505.33
  L 438.84 505.45
  L 438.85 505.54
  L 439.07 604.25
  L 438.59 604.02
  L 438.34 603.24
  L 438.46 554.74
  L 438.29 506.23
  L 438.42 505.60
  L 438.67 505.24
  Z"
/>
<path fill="#20365b" d="
  M 350.67 536.99
  L 350.47 614.08
  L 350.37 614.60
  L 350.07 615.04
  L 349.63 615.34
  L 349.11 615.44
  L 272.05 615.43
  L 271.49 615.56
  L 271.10 615.87
  L 271.04 615.94
  L 270.59 615.98
  L 270.12 615.79
  L 269.97 615.31
  L 269.97 537.72
  L 270.15 537.30
  L 270.57 537.12
  L 350.67 536.99
  Z
  M 344.34 609.68
  L 344.67 576.46
  L 344.28 543.22
  L 277.31 542.89
  L 276.45 543.24
  L 276.09 544.10
  L 276.09 544.10
  L 276.09 608.80
  L 276.44 609.64
  L 277.28 609.99
  L 342.85 609.99
  L 343.33 609.93
  L 343.63 609.83
  L 344.34 609.68
  Z"
/>
<path fill="#979da7" fill-opacity="0.996" d="
  M 271.04 615.94
  L 271.10 615.87
  L 271.49 615.56
  L 272.05 615.43
  L 349.11 615.44
  L 349.47 615.39
  L 350.19 614.91
  L 350.47 614.08
  L 350.67 536.99
  L 350.90 614.46
  L 350.66 615.24
  L 350.16 615.70
  L 349.50 615.86
  L 271.04 615.94
  Z"
/>
<path fill="#979da7" fill-opacity="0.996" d="
  M 344.34 609.68
  L 343.92 576.82
  L 344.28 543.22
  L 344.67 576.46
  L 344.34 609.68
  Z"
/>
<path fill="#979da7" fill-opacity="0.996" d="
  M 338.94 548.61
  L 334.75 548.65
  L 298.80 548.76
  L 290.51 548.75
  L 287.36 548.59
  L 284.62 548.10
  L 313.10 547.82
  L 338.00 547.96
  L 338.15 547.98
  L 338.56 548.18
  L 338.94 548.61
  Z"
/>
<path fill="#20365b" d="
  M 284.62 548.10
  L 287.36 548.59
  L 290.51 548.75
  L 298.80 548.76
  L 334.75 548.65
  L 338.94 548.61
  L 339.24 603.84
  L 338.96 604.13
  L 338.96 604.13
  L 282.12 604.13
  L 281.80 604.02
  L 281.70 603.72
  L 281.45 586.53
  L 281.66 578.91
  L 281.72 563.81
  L 281.30 548.70
  L 284.62 548.10
  Z"
/>
<path fill="#979da7" fill-opacity="0.996" d="
  M 281.30 548.70
  L 281.72 563.81
  L 281.66 578.91
  L 281.45 586.53
  L 281.02 567.64
  L 281.30 548.70
  Z"
/>
<path fill="#979da7" fill-opacity="0.996" d="
  M 469.97 615.87
  L 469.21 615.74
  L 469.12 615.47
  L 468.90 591.34
  L 469.09 567.18
  L 469.65 591.53
  L 469.62 602.81
  L 469.38 613.50
  L 469.50 614.89
  L 469.97 615.87
  Z"
/>
<path fill="#979da7" fill-opacity="0.996" d="
  M 550.59 576.27
  L 551.07 592.64
  L 551.07 592.64
  L 550.99 602.19
  L 550.64 611.74
  L 550.25 601.69
  L 550.16 591.64
  L 550.59 576.27
  Z"
/>
<path fill="#979da7" fill-opacity="0.996" d="
  M 581.19 603.98
  L 581.21 593.25
  L 581.19 603.98
  Z"
/>
<path fill="#979da7" fill-opacity="0.996" d="
  M 676.10 608.64
  L 678.99 609.60
  L 677.12 609.82
  L 676.54 609.70
  L 676.18 609.42
  L 676.18 609.42
  L 676.10 608.64
  Z"
/>
<path fill="#20365b" d="
  M 246.74 626.01
  L 246.97 626.18
  L 247.14 626.27
  L 247.35 626.31
  L 276.37 626.73
  L 305.39 626.87
  L 344.91 626.61
  L 351.83 626.76
  L 357.25 626.90
  L 404.00 626.90
  L 423.99 626.67
  L 436.68 626.59
  L 454.33 626.74
  L 474.36 626.70
  L 486.55 626.64
  L 499.04 626.80
  L 515.08 626.90
  L 532.00 626.49
  L 543.07 626.41
  L 562.51 626.72
  L 582.50 626.86
  L 626.67 626.53
  L 651.00 626.54
  L 698.34 626.89
  L 747.25 626.75
  L 762.96 626.72
  L 778.50 626.89
  L 778.54 626.89
  L 779.11 626.77
  L 779.59 626.44
  L 779.90 625.95
  L 780.00 625.37
  L 779.45 609.06
  L 811.51 609.06
  L 811.88 609.18
  L 812.00 609.55
  L 812.00 625.71
  L 812.00 625.71
  L 812.31 626.01
  L 827.50 626.12
  L 828.06 626.22
  L 828.41 626.47
  L 828.41 626.47
  L 828.57 627.13
  L 828.32 629.04
  L 828.37 630.92
  L 828.55 631.99
  L 806.49 631.94
  L 806.12 631.82
  L 806.00 631.45
  L 806.00 617.13
  L 805.84 616.31
  L 805.38 615.62
  L 805.38 615.62
  L 804.69 615.16
  L 803.87 615.00
  L 787.02 615.00
  L 786.24 615.16
  L 785.58 615.60
  L 785.14 616.26
  L 784.98 617.04
  L 784.98 631.52
  L 784.84 631.86
  L 784.50 632.00
  L 240.72 632.00
  L 240.28 631.87
  L 240.03 631.48
  L 239.94 631.01
  L 240.26 629.69
  L 240.39 616.08
  L 240.38 616.06
  L 240.38 616.06
  L 240.13 616.01
  L 239.99 615.52
  L 239.73 615.14
  L 239.30 615.00
  L 219.24 615.00
  L 219.07 615.07
  L 219.00 615.24
  L 219.00 631.72
  L 218.73 631.99
  L 196.64 632.04
  L 196.59 626.00
  L 212.56 626.00
  L 212.56 626.00
  L 212.87 625.87
  L 213.00 625.56
  L 213.00 609.23
  L 213.27 608.96
  L 245.04 609.08
  L 246.06 609.22
  L 246.63 609.64
  L 246.63 609.64
  L 246.74 610.24
  L 246.51 611.04
  L 246.45 611.70
  L 246.69 612.73
  L 246.78 613.28
  L 246.73 613.69
  L 246.12 617.01
  L 245.92 620.18
  L 246.13 623.17
  L 246.74 626.01
  Z"
/>
<path fill="#979da7" fill-opacity="0.996" d="
  M 779.45 609.06
  L 780.00 625.37
  L 779.90 625.95
  L 779.59 626.44
  L 779.11 626.77
  L 778.54 626.89
  L 778.54 626.89
  L 778.50 626.89
  L 762.96 626.72
  L 747.25 626.75
  L 698.34 626.89
  L 651.00 626.54
  L 626.67 626.53
  L 582.50 626.86
  L 562.51 626.72
  L 543.07 626.41
  L 532.00 626.49
  L 515.08 626.90
  L 499.04 626.80
  L 486.55 626.64
  L 474.36 626.70
  L 454.33 626.74
  L 436.68 626.59
  L 423.99 626.67
  L 404.00 626.90
  L 357.25 626.90
  L 351.83 626.76
  L 344.91 626.61
  L 305.39 626.87
  L 276.37 626.73
  L 247.35 626.31
  L 247.14 626.27
  L 246.97 626.18
  L 246.74 626.01
  L 778.47 626.02
  L 778.84 625.87
  L 779.00 625.51
  L 779.45 609.06
  Z"
/>
<path fill="#979da7" fill-opacity="0.996" d="
  M 750.95 614.04
  L 750.86 615.41
  L 750.59 615.79
  L 750.14 615.91
  L 671.21 615.78
  L 712.73 615.20
  L 731.34 615.24
  L 748.50 615.49
  L 749.95 615.33
  L 750.76 614.76
  L 750.95 614.04
  Z"
/>
<path fill="#979da7" fill-opacity="0.996" d="
  M 550.48 614.11
  L 550.90 614.72
  L 550.89 614.75
  L 550.19 615.62
  L 549.06 615.95
  L 470.54 615.90
  L 471.13 615.77
  L 472.00 615.60
  L 548.75 615.46
  L 549.73 615.20
  L 549.73 615.20
  L 550.18 614.76
  L 550.48 614.11
  Z"
/>
<path fill="#979da7" fill-opacity="0.996" d="
  M 240.26 629.69
  L 240.13 616.01
  L 240.38 616.06
  L 240.38 616.06
  L 240.39 616.08
  L 240.26 629.69
  Z"
/>
<path fill="#979da7" fill-opacity="0.996" d="
  M 196.59 626.00
  L 196.64 632.04
  L 196.11 630.74
  L 195.87 629.42
  L 195.87 629.42
  L 195.87 629.42
  L 195.99 627.72
  L 196.59 626.00
  Z"
/>
<path fill="#979da7" fill-opacity="0.996" d="
  M 828.57 627.13
  L 829.06 629.18
  L 828.90 631.06
  L 828.55 631.99
  L 828.37 630.92
  L 828.37 630.92
  L 828.32 629.04
  L 828.57 627.13
  Z"
/>
<path fill="#20365b" d="
  M 386.2498 693.2234
  L 386.0531 696.8650
  L 385.4903 700.4703
  L 384.5668 704.0045
  L 383.2916 707.4337
  L 381.6769 710.7246
  L 379.7382 713.8458
  L 377.4943 716.7670
  L 374.9667 719.4602
  L 372.1798 721.8995
  L 369.1604 724.0613
  L 365.9376 725.9249
  L 362.5424 727.4722
  L 359.0076 728.6884
  L 355.3671 729.5618
  L 351.6561 730.0839
  L 347.9103 730.2498
  L 344.1657 730.0578
  L 340.4584 729.5097
  L 336.8242 728.6110
  L 333.2979 727.3701
  L 329.9136 725.7991
  L 326.7039 723.9131
  L 323.6997 721.7303
  L 320.9299 719.2716
  L 318.4212 716.5608
  L 316.1977 713.6240
  L 314.2808 710.4894
  L 312.6891 707.1872
  L 311.4379 703.7493
  L 310.5391 700.2087
  L 310.0015 696.5996
  L 309.8302 692.9566
  L 309.8302 692.9566
  L 310.0269 689.3150
  L 310.5897 685.7097
  L 311.5132 682.1755
  L 312.7884 678.7463
  L 314.4031 675.4554
  L 316.3418 672.3342
  L 318.5857 669.4130
  L 321.1133 666.7198
  L 323.9002 664.2805
  L 326.9196 662.1187
  L 330.1424 660.2551
  L 333.5376 658.7078
  L 337.0724 657.4916
  L 340.7129 656.6182
  L 344.4239 656.0961
  L 348.1697 655.9302
  L 351.9143 656.1222
  L 355.6216 656.6703
  L 359.2558 657.5690
  L 362.7821 658.8099
  L 366.1664 660.3809
  L 369.3761 662.2669
  L 372.3803 664.4497
  L 375.1501 666.9084
  L 377.6588 669.6192
  L 379.8823 672.5560
  L 381.7992 675.6906
  L 383.3909 678.9928
  L 384.6421 682.4307
  L 385.5409 685.9713
  L 386.0785 689.5804
  L 386.2498 693.2234
  Z
  M 348.2067 718.3594
  L 350.6023 718.2208
  L 352.9731 717.8398
  L 355.2964 717.2200
  L 357.5496 716.3675
  L 359.7112 715.2904
  L 361.7603 713.9992
  L 363.6771 712.5061
  L 365.4433 710.8257
  L 367.0417 708.9742
  L 368.4571 706.9692
  L 369.6757 704.8302
  L 370.6859 702.5778
  L 371.4779 700.2336
  L 372.0441 697.8202
  L 372.3790 695.3609
  L 372.4794 692.8793
  L 372.3444 690.3994
  L 371.9751 687.9450
  L 371.3753 685.5397
  L 370.5507 683.2068
  L 369.5092 680.9687
  L 368.2608 678.8469
  L 366.8176 676.8620
  L 365.1934 675.0329
  L 363.4040 673.3773
  L 361.4664 671.9112
  L 359.3995 670.6487
  L 357.2231 669.6019
  L 354.9582 668.7809
  L 352.6265 668.1936
  L 350.2506 667.8458
  L 347.8533 667.7406
  L 347.8533 667.7406
  L 345.4577 667.8792
  L 343.0869 668.2602
  L 340.7636 668.8800
  L 338.5104 669.7325
  L 336.3488 670.8096
  L 334.2997 672.1008
  L 332.3829 673.5939
  L 330.6167 675.2743
  L 329.0183 677.1258
  L 327.6029 679.1308
  L 326.3843 681.2698
  L 325.3741 683.5222
  L 324.5821 685.8664
  L 324.0159 688.2798
  L 323.6810 690.7391
  L 323.5806 693.2207
  L 323.7156 695.7006
  L 324.0849 698.1550
  L 324.6847 700.5603
  L 325.5093 702.8932
  L 326.5508 705.1313
  L 327.7992 707.2531
  L 329.2424 709.2380
  L 330.8666 711.0671
  L 332.6560 712.7227
  L 334.5936 714.1888
  L 336.6605 715.4513
  L 338.8369 716.4981
  L 341.1018 717.3191
  L 343.4335 717.9064
  L 345.8094 718.2542
  L 348.2067 718.3594
  Z"
/>
<path fill="#20365b" d="
  M 226.96 683.37
  L 226.56 681.98
  L 225.97 680.70
  L 225.14 679.46
  L 225.12 679.43
  L 224.79 679.29
  L 224.47 679.44
  L 224.13 679.83
  L 224.65 688.16
  L 224.30 689.83
  L 224.28 691.48
  L 224.28 691.48
  L 224.65 693.32
  L 224.56 706.71
  L 224.62 718.50
  L 223.98 728.45
  L 223.80 728.83
  L 223.40 728.99
  L 212.56 728.99
  L 212.17 728.83
  L 212.01 728.44
  L 212.01 728.44
  L 212.01 658.54
  L 212.17 658.08
  L 212.63 657.92
  L 224.59 657.92
  L 225.54 658.17
  L 226.23 658.87
  L 248.96 698.23
  L 249.22 698.27
  L 249.25 698.23
  L 268.29 664.02
  L 268.91 662.85
  L 270.02 660.82
  L 271.01 659.46
  L 272.11 658.49
  L 273.25 658.00
  L 274.12 657.90
  L 278.08 657.88
  L 282.80 657.88
  L 286.04 658.08
  L 286.43 658.26
  L 286.53 658.65
  L 286.15 669.07
  L 286.00 679.92
  L 286.10 691.20
  L 286.43 702.92
  L 286.53 709.15
  L 286.38 715.58
  L 285.87 728.40
  L 285.71 728.82
  L 285.28 728.96
  L 274.65 728.96
  L 274.20 728.78
  L 274.01 728.33
  L 274.01 728.33
  L 274.01 728.33
  L 274.01 679.48
  L 273.86 678.80
  L 273.40 679.32
  L 267.50 689.48
  L 259.29 703.90
  L 252.94 716.28
  L 252.67 716.63
  L 252.22 716.83
  L 249.23 717.13
  L 246.47 716.78
  L 246.02 716.56
  L 245.69 716.18
  L 226.96 683.37
  Z"
/>
<path fill="#20365b" d="
  M 444.32 728.73
  L 413.50 728.75
  L 413.33 728.82
  L 413.33 728.82
  L 412.57 728.99
  L 411.73 728.95
  L 411.20 728.65
  L 410.98 728.09
  L 410.43 703.40
  L 410.77 692.09
  L 410.87 680.77
  L 410.72 669.43
  L 410.32 658.08
  L 429.83 657.88
  L 442.75 657.94
  L 446.83 658.22
  L 450.72 658.88
  L 454.44 659.93
  L 457.96 661.36
  L 457.96 661.36
  L 457.96 661.36
  L 460.28 662.57
  L 462.52 663.97
  L 466.72 667.30
  L 469.99 670.74
  L 472.68 674.53
  L 472.68 674.53
  L 472.68 674.53
  L 472.68 674.53
  L 473.98 676.92
  L 475.08 679.42
  L 475.99 682.04
  L 476.70 684.78
  L 477.41 689.01
  L 477.69 693.14
  L 477.52 697.19
  L 476.93 701.14
  L 476.93 701.14
  L 476.93 701.14
  L 476.74 701.99
  L 475.34 706.75
  L 473.47 711.07
  L 471.13 714.94
  L 468.33 718.37
  L 468.33 718.37
  L 468.33 718.37
  L 468.33 718.37
  L 465.22 721.23
  L 461.68 723.68
  L 457.82 725.66
  L 453.64 727.17
  L 449.14 728.19
  L 444.32 728.73
  Z
  M 423.95 669.47
  L 423.77 669.41
  L 423.60 669.44
  L 423.38 669.62
  L 423.30 669.92
  L 423.30 716.84
  L 423.58 717.68
  L 424.44 717.94
  L 444.49 717.13
  L 447.38 716.65
  L 450.06 715.87
  L 452.53 714.80
  L 454.80 713.43
  L 454.80 713.43
  L 454.80 713.43
  L 457.49 711.15
  L 459.82 708.34
  L 461.60 705.25
  L 462.89 701.76
  L 463.76 697.99
  L 464.11 694.53
  L 464.00 690.48
  L 463.40 686.73
  L 462.30 683.28
  L 460.71 680.14
  L 460.71 680.14
  L 460.71 680.14
  L 460.71 680.14
  L 459.32 678.13
  L 457.70 676.27
  L 455.83 674.56
  L 453.73 672.99
  L 451.80 671.88
  L 449.61 670.98
  L 447.16 670.27
  L 444.44 669.76
  L 438.73 669.09
  L 434.50 668.90
  L 424.42 669.02
  L 424.24 669.06
  L 424.08 669.19
  L 423.95 669.47
  Z"
/>
<path fill="#20365b" d="
  M 711.01 711.68
  L 693.41 711.35
  L 675.76 711.73
  L 671.99 720.29
  L 670.94 721.99
  L 670.46 723.85
  L 669.41 726.45
  L 667.93 728.64
  L 655.15 728.74
  L 659.36 718.83
  L 660.89 716.23
  L 661.97 713.29
  L 686.90 658.96
  L 687.60 658.13
  L 688.61 657.86
  L 698.63 657.86
  L 699.22 658.00
  L 699.68 658.39
  L 700.51 659.58
  L 700.51 659.58
  L 701.74 661.65
  L 702.80 663.83
  L 705.20 669.31
  L 710.82 680.95
  L 720.89 702.88
  L 729.92 721.86
  L 731.74 726.26
  L 732.61 728.51
  L 732.62 728.91
  L 732.24 729.05
  L 719.89 729.05
  L 719.37 728.91
  L 719.02 728.50
  L 711.82 712.86
  L 711.40 712.20
  L 711.29 712.07
  L 711.01 711.68
  Z
  M 682.32 698.07
  L 681.43 699.07
  L 681.23 699.94
  L 681.72 700.68
  L 704.63 701.00
  L 705.45 700.64
  L 705.71 699.79
  L 705.68 699.64
  L 704.57 696.50
  L 702.67 692.25
  L 701.64 689.99
  L 694.24 672.68
  L 693.91 672.29
  L 693.67 672.22
  L 693.30 672.31
  L 693.06 672.60
  L 682.32 698.07
  Z"
/>
<path fill="#20365b" d="
  M 764.69 704.06
  L 764.36 715.93
  L 764.73 727.62
  L 765.01 728.14
  L 765.01 728.56
  L 764.91 728.74
  L 764.07 729.01
  L 752.77 728.98
  L 752.23 728.75
  L 752.00 728.21
  L 752.00 658.72
  L 752.00 658.72
  L 752.21 658.23
  L 752.70 658.03
  L 787.50 657.86
  L 789.54 658.01
  L 791.89 658.47
  L 794.56 659.25
  L 797.54 660.34
  L 801.15 662.17
  L 804.21 664.52
  L 806.25 666.75
  L 807.94 669.26
  L 809.33 672.12
  L 810.36 675.23
  L 810.92 678.01
  L 811.14 680.84
  L 811.03 683.67
  L 810.58 686.46
  L 809.81 689.12
  L 808.72 691.66
  L 807.35 693.94
  L 805.68 696.02
  L 802.65 698.79
  L 799.28 700.89
  L 797.23 701.79
  L 795.07 702.48
  L 794.99 702.51
  L 794.73 702.82
  L 794.80 703.22
  L 812.86 728.46
  L 813.00 728.93
  L 812.54 729.09
  L 799.00 729.09
  L 798.36 728.94
  L 797.90 728.48
  L 792.11 719.83
  L 784.74 709.64
  L 783.28 707.39
  L 782.06 705.49
  L 780.92 704.49
  L 780.07 704.16
  L 779.00 704.02
  L 771.95 703.93
  L 764.69 704.06
  Z
  M 764.75 669.09
  L 764.21 692.82
  L 764.21 692.84
  L 764.51 693.54
  L 765.21 693.81
  L 786.52 693.23
  L 789.15 692.83
  L 791.43 692.10
  L 793.37 691.06
  L 794.97 689.69
  L 794.97 689.69
  L 796.10 688.20
  L 796.95 686.47
  L 797.54 684.48
  L 797.85 682.23
  L 797.87 680.04
  L 797.60 678.04
  L 797.04 676.24
  L 796.18 674.63
  L 796.18 674.63
  L 796.18 674.63
  L 795.30 673.52
  L 794.25 672.52
  L 791.42 670.67
  L 789.06 669.75
  L 786.38 669.17
  L 783.22 668.90
  L 778.68 668.86
  L 777.47 668.86
  L 764.75 669.09
  Z"
/>
<path fill="#979da7" fill-opacity="0.996" d="
  M 410.32 658.08
  L 410.72 669.43
  L 410.87 680.77
  L 410.77 692.09
  L 410.43 703.40
  L 410.03 693.56
  L 409.85 683.75
  L 409.92 670.95
  L 410.32 658.08
  Z"
/>
<path fill="#979da7" fill-opacity="0.996" d="
  M 499.66 658.12
  L 499.53 694.94
  L 498.92 682.54
  L 498.84 670.15
  L 498.84 670.15
  L 499.19 659.21
  L 499.29 658.33
  L 499.48 658.01
  L 499.48 658.01
  L 499.66 658.12
  Z"
/>
<path fill="#20365b" d="
  M 499.53 694.94
  L 499.66 658.12
  L 511.50 658.06
  L 511.50 658.06
  L 511.88 658.21
  L 512.03 658.59
  L 512.00 689.01
  L 512.75 701.23
  L 513.03 703.71
  L 513.57 706.03
  L 514.36 708.21
  L 515.40 710.23
  L 517.40 712.93
  L 519.96 715.30
  L 522.35 716.79
  L 524.53 717.61
  L 526.89 718.05
  L 530.82 718.25
  L 534.49 717.99
  L 536.53 717.61
  L 538.44 717.02
  L 540.21 716.24
  L 541.84 715.26
  L 544.28 713.16
  L 546.33 710.50
  L 547.44 707.94
  L 548.18 704.17
  L 548.40 702.79
  L 548.73 699.56
  L 549.01 680.76
  L 548.96 658.56
  L 549.09 658.14
  L 549.51 658.00
  L 561.47 658.00
  L 561.85 658.13
  L 561.98 658.51
  L 561.97 699.74
  L 561.85 702.30
  L 561.51 704.86
  L 560.95 707.43
  L 560.17 710.00
  L 557.95 715.17
  L 554.85 720.35
  L 553.44 721.87
  L 550.84 724.06
  L 548.64 725.60
  L 546.29 726.91
  L 543.71 728.04
  L 541.02 728.92
  L 538.09 729.60
  L 535.12 730.03
  L 532.05 730.21
  L 529.02 730.15
  L 523.76 729.46
  L 518.08 728.04
  L 515.02 726.89
  L 512.20 725.37
  L 512.20 725.37
  L 512.20 725.37
  L 510.31 724.04
  L 508.55 722.52
  L 506.83 720.74
  L 505.28 718.84
  L 505.28 718.84
  L 505.28 718.84
  L 503.78 716.61
  L 502.48 714.22
  L 501.40 711.68
  L 500.52 708.99
  L 500.07 706.74
  L 499.76 703.64
  L 499.53 694.94
  Z"
/>
<path fill="#979da7" fill-opacity="0.996" d="
  M 588.35 658.01
  L 588.89 685.94
  L 588.84 713.81
  L 588.61 727.13
  L 588.90 727.87
  L 589.63 728.19
  L 589.63 728.19
  L 589.64 728.19
  L 638.23 728.19
  L 638.23 728.19
  L 639.01 727.86
  L 639.33 727.08
  L 639.33 718.70
  L 639.13 718.10
  L 638.53 717.90
  L 602.25 717.90
  L 602.25 717.90
  L 601.40 717.55
  L 601.06 716.70
  L 601.45 660.97
  L 601.89 661.15
  L 602.00 661.50
  L 602.00 716.74
  L 602.29 717.03
  L 638.23 717.03
  L 638.89 717.16
  L 639.45 717.53
  L 639.82 718.09
  L 639.95 718.75
  L 639.95 728.51
  L 639.82 728.84
  L 639.49 728.98
  L 590.23 728.98
  L 590.23 728.98
  L 589.39 728.81
  L 588.68 728.33
  L 588.20 727.61
  L 588.04 726.77
  L 588.35 658.01
  Z"
/>
<path fill="#20365b" d="
  M 601.27 658.98
  L 601.30 659.70
  L 601.51 660.11
  L 601.30 660.22
  L 601.45 660.97
  L 601.06 716.70
  L 601.40 717.55
  L 602.25 717.90
  L 602.25 717.90
  L 638.53 717.90
  L 639.13 718.10
  L 639.33 718.70
  L 639.33 727.08
  L 639.01 727.86
  L 638.23 728.19
  L 638.23 728.19
  L 589.64 728.19
  L 589.63 728.19
  L 588.90 727.87
  L 588.61 727.13
  L 588.84 713.81
  L 588.89 685.94
  L 588.35 658.01
  L 600.00 657.98
  L 600.59 658.11
  L 600.59 658.11
  L 600.98 658.44
  L 601.27 658.98
  Z"
/>
<path fill="#979da7" fill-opacity="0.996" d="
  M 601.51 660.11
  L 601.30 659.70
  L 601.27 658.98
  L 601.72 659.24
  L 601.84 659.54
  L 601.82 659.78
  L 601.51 660.11
  Z"
/>
<path fill="#979da7" fill-opacity="0.996" d="
  M 423.95 669.47
  L 423.95 716.64
  L 424.28 716.97
  L 444.49 717.13
  L 424.44 717.94
  L 423.58 717.68
  L 423.30 716.84
  L 423.30 669.92
  L 423.38 669.62
  L 423.60 669.44
  L 423.77 669.41
  L 423.95 669.47
  Z"
/>
<path fill="#979da7" fill-opacity="0.996" d="
  M 764.75 669.09
  L 764.97 692.68
  L 765.30 693.01
  L 786.52 693.23
  L 765.21 693.81
  L 764.51 693.54
  L 764.21 692.84
  L 764.21 692.82
  L 764.75 669.09
  Z"
/>
<path fill="#979da7" fill-opacity="0.996" d="
  M 226.96 683.37
  L 225.69 681.41
  L 224.13 679.83
  L 224.47 679.44
  L 224.79 679.29
  L 225.12 679.43
  L 225.14 679.46
  L 225.97 680.70
  L 226.56 681.98
  L 226.96 683.37
  Z"
/>
<path fill="#979da7" fill-opacity="0.996" d="
  M 224.65 688.16
  L 224.69 688.39
  L 224.69 688.39
  L 224.87 690.82
  L 224.65 693.32
  L 224.28 691.48
  L 224.28 691.48
  L 224.30 689.83
  L 224.65 688.16
  Z"
/>
<path fill="#979da7" fill-opacity="0.996" d="
  M 682.32 698.07
  L 681.72 700.68
  L 681.23 699.94
  L 681.43 699.07
  L 682.32 698.07
  Z"
/>
<path fill="#979da7" fill-opacity="0.996" d="
  M 764.69 704.06
  L 764.73 727.62
  L 764.36 715.93
  L 764.69 704.06
  Z"
/>
<path fill="#979da7" fill-opacity="0.996" d="
  M 224.56 706.71
  L 224.62 718.50
  L 224.56 706.71
  Z"
/>
<path fill="#979da7" fill-opacity="0.996" d="
  M 711.01 711.68
  L 675.76 711.73
  L 693.41 711.35
  L 711.01 711.68
  Z"
/>
<path fill="#979da7" fill-opacity="0.996" d="
  M 661.97 713.29
  L 660.89 716.23
  L 659.36 718.83
  L 661.97 713.29
  Z"
/>
<path fill="#979da7" fill-opacity="0.996" d="
  M 671.99 720.29
  L 671.56 721.73
  L 670.95 723.06
  L 670.95 723.06
  L 670.46 723.85
  L 670.94 721.99
  L 671.99 720.29
  Z"
/>
<path fill="#979da7" fill-opacity="0.996" d="
  M 444.32 728.73
  L 428.70 729.11
  L 413.50 728.75
  L 444.32 728.73
  Z"
/>
<path fill="#979da7" fill-opacity="0.996" d="
  M 667.93 728.64
  L 662.48 729.23
  L 659.79 729.23
  L 657.12 729.02
  L 657.12 729.02
  L 655.15 728.74
  L 667.93 728.64
  Z"
/>
<path fill="#20365b" d="
  M 476.76 747.88
  L 478.13 748.13
  L 478.13 748.13
  L 479.39 749.00
  L 480.41 750.51
  L 496.70 784.70
  L 496.85 785.22
  L 496.78 785.58
  L 496.78 785.58
  L 496.48 785.81
  L 495.94 785.88
  L 492.96 785.88
  L 491.96 785.61
  L 491.30 784.82
  L 487.81 777.23
  L 487.07 776.37
  L 486.00 776.01
  L 476.96 775.93
  L 467.93 776.14
  L 466.86 776.51
  L 466.14 777.39
  L 462.76 785.03
  L 462.11 785.83
  L 461.11 786.11
  L 458.13 786.15
  L 457.60 786.09
  L 457.29 785.87
  L 457.29 785.87
  L 457.29 785.87
  L 457.21 785.50
  L 457.36 784.99
  L 473.15 750.57
  L 474.14 749.04
  L 475.40 748.15
  L 476.76 747.88
  Z
  M 469.26 770.73
  L 469.23 771.44
  L 469.71 771.95
  L 470.11 772.04
  L 483.89 772.02
  L 484.34 771.90
  L 484.67 771.59
  L 484.82 771.16
  L 484.74 770.71
  L 477.82 755.38
  L 477.77 755.27
  L 477.40 754.93
  L 476.91 754.83
  L 476.44 755.00
  L 476.12 755.38
  L 469.26 770.73
  Z"
/>
<path fill="#979da7" fill-opacity="0.996" d="
  M 367.84 748.42
  L 336.95 748.67
  L 336.19 748.76
  L 335.67 749.06
  L 335.48 749.28
  L 335.11 750.48
  L 334.93 749.48
  L 335.07 748.73
  L 335.37 748.38
  L 335.84 748.25
  L 367.84 748.42
  Z"
/>
<path fill="#20365b" d="
  M 420.39 771.46
  L 420.04 771.80
  L 420.18 772.27
  L 429.39 785.15
  L 429.59 785.81
  L 428.94 786.03
  L 425.80 786.03
  L 424.37 785.69
  L 423.26 784.73
  L 414.43 772.37
  L 413.70 771.99
  L 403.73 771.99
  L 403.16 772.18
  L 402.97 772.76
  L 402.97 785.52
  L 402.85 785.87
  L 402.50 785.99
  L 398.50 785.99
  L 398.14 785.87
  L 398.01 785.49
  L 398.01 748.76
  L 398.18 748.25
  L 398.69 748.08
  L 410.55 748.05
  L 418.02 748.36
  L 420.62 748.75
  L 422.46 749.30
  L 424.51 750.43
  L 426.18 751.90
  L 426.18 751.90
  L 426.18 751.90
  L 427.55 753.82
  L 428.50 756.12
  L 429.03 758.80
  L 429.15 761.85
  L 428.74 764.60
  L 427.66 766.90
  L 426.80 767.96
  L 425.73 768.90
  L 424.47 769.70
  L 423.01 770.36
  L 420.39 771.46
  Z
  M 402.98 753.29
  L 403.11 767.42
  L 403.25 767.79
  L 403.64 767.82
  L 403.98 767.72
  L 404.84 767.88
  L 405.64 767.80
  L 405.64 767.80
  L 406.05 767.65
  L 411.32 767.54
  L 413.17 767.80
  L 414.95 767.84
  L 416.64 767.65
  L 418.26 767.23
  L 419.69 766.91
  L 420.91 766.43
  L 421.95 765.78
  L 422.78 764.98
  L 422.78 764.98
  L 423.36 764.11
  L 423.79 763.12
  L 424.16 760.74
  L 424.09 759.04
  L 423.79 757.55
  L 423.26 756.24
  L 422.50 755.14
  L 422.50 755.14
  L 422.50 755.14
  L 421.68 754.37
  L 420.70 753.73
  L 418.26 752.88
  L 417.69 752.79
  L 417.69 752.79
  L 414.14 752.34
  L 410.56 752.10
  L 406.94 752.07
  L 403.29 752.26
  L 402.86 752.46
  L 402.66 752.90
  L 402.75 753.24
  L 402.98 753.29
  Z"
/>
<path fill="#20365b" d="
  M 528.22 748.25
  L 546.27 748.53
  L 549.46 749.19
  L 552.30 750.20
  L 554.79 751.57
  L 556.94 753.30
  L 556.94 753.30
  L 557.80 754.21
  L 559.05 755.81
  L 560.06 757.47
  L 561.29 760.41
  L 562.00 763.69
  L 562.23 767.43
  L 561.97 771.73
  L 561.32 774.35
  L 559.89 777.11
  L 558.50 779.07
  L 556.97 780.81
  L 555.30 782.32
  L 553.48 783.60
  L 553.48 783.60
  L 553.48 783.60
  L 551.22 784.80
  L 548.77 785.69
  L 546.13 786.29
  L 543.31 786.58
  L 539.18 786.25
  L 535.10 786.15
  L 531.06 786.26
  L 527.06 786.60
  L 526.97 767.73
  L 527.19 748.85
  L 527.39 748.22
  L 527.62 748.09
  L 528.22 748.25
  Z
  M 535.52 782.13
  L 541.76 782.20
  L 545.77 781.85
  L 547.84 781.32
  L 549.72 780.59
  L 551.42 779.64
  L 552.92 778.48
  L 552.92 778.48
  L 552.92 778.48
  L 552.92 778.48
  L 554.15 777.22
  L 555.21 775.78
  L 556.12 774.16
  L 556.86 772.36
  L 557.55 769.99
  L 557.79 767.62
  L 557.79 767.62
  L 557.58 765.24
  L 556.91 762.86
  L 555.73 759.87
  L 554.04 757.46
  L 552.39 755.92
  L 550.57 754.67
  L 550.57 754.67
  L 550.57 754.67
  L 548.82 753.82
  L 546.94 753.21
  L 544.93 752.82
  L 542.79 752.67
  L 532.41 752.41
  L 531.60 752.66
  L 531.33 753.46
  L 531.33 781.46
  L 531.60 782.14
  L 532.26 782.44
  L 534.07 782.41
  L 535.52 782.13
  Z"
/>
<path fill="#979da7" fill-opacity="0.996" d="
  M 546.27 748.53
  L 528.22 748.25
  L 534.52 747.91
  L 540.80 748.04
  L 546.27 748.53
  Z"
/>
<path fill="#979da7" fill-opacity="0.996" d="
  M 621.90 748.83
  L 596.28 748.56
  L 595.66 748.68
  L 595.13 749.03
  L 594.78 749.55
  L 594.65 750.18
  L 594.65 750.18
  L 594.65 750.18
  L 594.65 785.07
  L 595.03 786.00
  L 595.96 786.39
  L 610.78 786.47
  L 595.81 786.83
  L 595.13 786.71
  L 594.55 786.34
  L 594.16 785.77
  L 594.02 785.10
  L 594.02 785.08
  L 594.02 749.76
  L 594.18 749.05
  L 594.80 748.35
  L 595.69 748.09
  L 620.78 748.18
  L 621.40 748.28
  L 621.78 748.55
  L 621.78 748.55
  L 621.90 748.83
  Z"
/>
<path fill="#979da7" fill-opacity="0.996" d="
  M 675.90 748.42
  L 654.54 749.05
  L 654.50 748.95
  L 654.50 748.95
  L 654.69 748.66
  L 655.28 748.34
  L 656.26 748.16
  L 657.13 748.16
  L 671.00 748.01
  L 673.39 748.09
  L 675.90 748.42
  Z"
/>
<path fill="#20365b" d="
  M 660.47 771.97
  L 660.00 771.55
  L 659.99 771.55
  L 659.44 771.98
  L 659.24 772.62
  L 659.59 785.83
  L 656.02 786.02
  L 655.35 785.84
  L 655.12 785.17
  L 654.97 752.50
  L 654.54 749.05
  L 675.90 748.42
  L 677.97 748.86
  L 679.82 749.52
  L 681.43 750.43
  L 682.81 751.56
  L 682.81 751.56
  L 684.00 752.98
  L 684.95 754.65
  L 685.65 756.56
  L 686.10 758.73
  L 686.19 760.37
  L 686.01 762.05
  L 685.57 763.73
  L 684.89 765.35
  L 684.01 766.80
  L 682.92 768.09
  L 681.71 769.11
  L 680.33 769.91
  L 677.02 771.51
  L 676.78 771.77
  L 676.89 772.13
  L 685.66 784.40
  L 685.98 785.00
  L 685.97 785.45
  L 685.97 785.45
  L 685.64 785.76
  L 684.98 785.91
  L 682.58 786.15
  L 681.15 785.94
  L 680.05 785.00
  L 670.98 772.32
  L 670.32 771.98
  L 660.47 771.97
  Z
  M 659.82 767.70
  L 660.74 767.47
  L 660.68 767.46
  L 663.04 767.91
  L 665.33 767.86
  L 667.18 767.45
  L 668.28 767.61
  L 668.28 767.61
  L 670.43 767.69
  L 672.62 767.48
  L 673.94 767.69
  L 674.81 767.39
  L 675.10 766.98
  L 677.58 766.31
  L 678.57 765.74
  L 679.39 765.02
  L 679.39 765.02
  L 679.39 765.02
  L 680.06 764.13
  L 680.56 763.08
  L 681.03 760.50
  L 681.00 758.96
  L 680.75 757.59
  L 680.31 756.37
  L 679.65 755.33
  L 679.65 755.33
  L 679.65 755.33
  L 678.85 754.50
  L 677.88 753.81
  L 675.39 752.86
  L 667.88 752.28
  L 660.22 752.42
  L 659.84 752.58
  L 659.65 752.95
  L 659.37 755.75
  L 659.37 755.75
  L 659.26 761.70
  L 659.82 767.70
  Z"
/>
<path fill="#20365b" d="
  M 367.84 748.42
  L 367.82 752.53
  L 361.04 752.13
  L 354.39 752.47
  L 354.26 752.53
  L 354.21 752.60
  L 354.20 752.70
  L 354.31 752.85
  L 353.91 753.75
  L 353.89 785.09
  L 353.67 785.73
  L 353.04 785.94
  L 349.89 785.94
  L 349.24 785.72
  L 349.02 785.07
  L 349.02 754.06
  L 348.73 753.34
  L 348.03 753.02
  L 337.49 752.82
  L 336.39 752.67
  L 335.62 752.19
  L 335.62 752.19
  L 335.22 751.47
  L 335.11 750.48
  L 335.48 749.28
  L 335.67 749.06
  L 336.19 748.76
  L 336.95 748.67
  L 367.84 748.42
  Z"
/>
<path fill="#20365b" d="
  M 621.90 748.83
  L 621.94 751.55
  L 621.86 751.64
  L 621.86 751.64
  L 620.91 752.19
  L 619.50 752.32
  L 610.28 752.20
  L 599.10 752.71
  L 599.10 765.46
  L 619.71 766.07
  L 618.79 769.50
  L 618.60 769.78
  L 618.28 769.70
  L 618.08 769.52
  L 618.05 769.48
  L 617.69 769.15
  L 617.21 769.05
  L 607.71 769.40
  L 606.07 769.16
  L 604.99 769.38
  L 603.74 769.25
  L 602.52 769.33
  L 602.52 769.33
  L 602.28 769.38
  L 600.40 769.23
  L 599.75 769.40
  L 599.29 769.74
  L 599.29 769.74
  L 599.14 769.95
  L 599.10 781.46
  L 599.25 781.93
  L 599.72 782.09
  L 621.83 782.09
  L 622.64 782.33
  L 623.08 783.08
  L 623.08 784.59
  L 622.42 786.28
  L 616.86 786.53
  L 610.78 786.47
  L 595.96 786.39
  L 595.03 786.00
  L 594.65 785.07
  L 594.65 750.18
  L 594.65 750.18
  L 594.78 749.55
  L 595.13 749.03
  L 595.66 748.68
  L 596.28 748.56
  L 621.90 748.83
  Z"
/>
<path fill="#979da7" fill-opacity="0.996" d="
  M 621.94 751.55
  L 621.90 752.32
  L 621.63 752.75
  L 621.63 752.75
  L 621.25 752.87
  L 611.05 752.96
  L 599.10 752.71
  L 610.28 752.20
  L 619.50 752.32
  L 620.91 752.19
  L 621.86 751.64
  L 621.86 751.64
  L 621.94 751.55
  Z"
/>
<path fill="#979da7" fill-opacity="0.996" d="
  M 367.82 752.53
  L 354.31 752.85
  L 354.20 752.70
  L 354.21 752.60
  L 354.26 752.53
  L 354.39 752.47
  L 361.04 752.13
  L 367.82 752.53
  Z"
/>
<path fill="#979da7" fill-opacity="0.996" d="
  M 418.26 752.88
  L 402.98 753.29
  L 402.75 753.24
  L 402.66 752.90
  L 402.86 752.46
  L 403.29 752.26
  L 406.94 752.07
  L 410.56 752.10
  L 414.14 752.34
  L 417.69 752.79
  L 417.69 752.79
  L 418.26 752.88
  Z"
/>
<path fill="#979da7" fill-opacity="0.996" d="
  M 542.79 752.67
  L 532.85 752.90
  L 532.23 753.17
  L 531.98 753.79
  L 531.98 781.15
  L 532.21 781.74
  L 532.79 782.00
  L 535.52 782.13
  L 534.07 782.41
  L 532.26 782.44
  L 531.60 782.14
  L 531.33 781.46
  L 531.33 753.46
  L 531.60 752.66
  L 532.41 752.41
  L 542.79 752.67
  Z"
/>
<path fill="#979da7" fill-opacity="0.996" d="
  M 675.39 752.86
  L 660.71 753.03
  L 660.28 753.21
  L 660.10 753.64
  L 659.82 767.70
  L 659.26 761.70
  L 659.37 755.75
  L 659.65 752.95
  L 659.84 752.58
  L 660.22 752.42
  L 667.88 752.28
  L 675.39 752.86
  Z"
/>
<path fill="#979da7" fill-opacity="0.996" d="
  M 211.40 763.01
  L 211.71 765.32
  L 211.67 767.60
  L 211.67 767.60
  L 211.46 768.99
  L 211.07 767.58
  L 210.91 766.17
  L 210.91 766.17
  L 210.91 766.17
  L 211.01 764.60
  L 211.40 763.01
  Z"
/>
<path fill="#20365b" d="
  M 211.46 768.99
  L 211.67 767.60
  L 211.67 767.60
  L 211.71 765.32
  L 211.40 763.01
  L 305.64 763.01
  L 305.85 763.08
  L 305.91 763.27
  L 305.91 768.78
  L 305.86 768.93
  L 305.69 768.99
  L 211.46 768.99
  Z"
/>
<path fill="#979da7" fill-opacity="0.996" d="
  M 556.86 772.36
  L 556.91 762.86
  L 557.58 765.24
  L 557.79 767.62
  L 557.79 767.62
  L 557.55 769.99
  L 556.86 772.36
  Z"
/>
<path fill="#20365b" d="
  M 814.79 763.01
  L 815.22 765.65
  L 814.98 768.13
  L 814.98 768.13
  L 814.72 768.99
  L 720.91 769.00
  L 720.21 768.77
  L 719.97 768.05
  L 719.97 763.95
  L 720.21 763.24
  L 720.92 763.00
  L 814.79 763.01
  Z"
/>
<path fill="#979da7" fill-opacity="0.996" d="
  M 814.72 768.99
  L 814.98 768.13
  L 814.98 768.13
  L 815.22 765.65
  L 814.79 763.01
  L 815.42 763.06
  L 815.86 763.24
  L 816.00 763.68
  L 816.00 768.48
  L 815.89 768.83
  L 815.54 768.96
  L 814.72 768.99
  Z"
/>
<path fill="#979da7" fill-opacity="0.996" d="
  M 619.71 766.07
  L 599.10 765.46
  L 608.36 764.94
  L 617.56 765.09
  L 618.73 765.35
  L 619.49 765.76
  L 619.71 766.07
  L 619.71 766.07
  Z"
/>
<path fill="#979da7" fill-opacity="0.996" d="
  M 418.26 767.23
  L 416.64 767.65
  L 414.95 767.84
  L 413.17 767.80
  L 411.32 767.54
  L 412.38 767.32
  L 412.38 767.32
  L 415.28 767.04
  L 418.26 767.23
  Z"
/>
<path fill="#979da7" fill-opacity="0.996" d="
  M 667.18 767.45
  L 665.33 767.86
  L 663.04 767.91
  L 660.68 767.46
  L 662.73 767.07
  L 664.94 767.05
  L 667.18 767.45
  Z"
/>
<path fill="#979da7" fill-opacity="0.996" d="
  M 675.10 766.98
  L 674.81 767.39
  L 674.81 767.39
  L 673.94 767.69
  L 672.62 767.48
  L 675.10 766.98
  Z"
/>
<path fill="#979da7" fill-opacity="0.996" d="
  M 406.05 767.65
  L 405.64 767.80
  L 404.84 767.88
  L 403.98 767.72
  L 404.66 767.22
  L 405.30 767.25
  L 406.05 767.65
  Z"
/>
<path fill="#979da7" fill-opacity="0.996" d="
  M 602.28 769.38
  L 599.14 769.95
  L 599.29 769.74
  L 599.29 769.74
  L 599.75 769.40
  L 600.40 769.23
  L 602.28 769.38
  Z"
/>
<path fill="#979da7" fill-opacity="0.996" d="
  M 607.71 769.40
  L 607.09 769.67
  L 606.09 769.73
  L 604.99 769.38
  L 606.07 769.16
  L 607.71 769.40
  Z"
/>
<path fill="#979da7" fill-opacity="0.996" d="
  M 660.47 771.97
  L 659.59 785.83
  L 659.24 772.62
  L 659.44 771.98
  L 659.99 771.55
  L 660.00 771.55
  L 660.47 771.97
  Z"
/>
<path fill="#979da7" fill-opacity="0.996" d="
  M 622.42 786.28
  L 622.29 786.34
  L 622.29 786.34
  L 622.29 786.34
  L 621.09 786.74
  L 619.79 786.91
  L 618.38 786.84
  L 616.86 786.53
  L 622.42 786.28
  Z"
/>
<path fill="#979da7" fill-opacity="0.996" d="
  M 543.31 786.58
  L 539.21 786.89
  L 535.14 787.00
  L 531.09 786.90
  L 527.06 786.60
  L 531.06 786.26
  L 535.10 786.15
  L 539.18 786.25
  L 543.31 786.58
  Z"
/>
</svg>
