<?xml version="1.0" encoding="UTF-8" standalone="no"?>
<!-- Created with Inkscape (http://www.inkscape.org/) -->

<svg
   width="65.532089mm"
   height="65.532089mm"
   viewBox="0 0 65.532089 65.532089"
   version="1.1"
   id="svg1786"
   inkscape:version="1.2.2 (732a01da63, 2022-12-09)"
   sodipodi:docname="pick_layer.svg"
   xmlns:inkscape="http://www.inkscape.org/namespaces/inkscape"
   xmlns:sodipodi="http://sodipodi.sourceforge.net/DTD/sodipodi-0.dtd"
   xmlns="http://www.w3.org/2000/svg"
   xmlns:svg="http://www.w3.org/2000/svg">
  <sodipodi:namedview
     id="namedview1788"
     pagecolor="#ffffff"
     bordercolor="#666666"
     borderopacity="1.0"
     inkscape:showpageshadow="2"
     inkscape:pageopacity="0.0"
     inkscape:pagecheckerboard="0"
     inkscape:deskcolor="#d1d1d1"
     inkscape:document-units="mm"
     showgrid="false"
     inkscape:zoom="0.2102413"
     inkscape:cx="-11.891098"
     inkscape:cy="-107.01989"
     inkscape:window-width="1920"
     inkscape:window-height="997"
     inkscape:window-x="-9"
     inkscape:window-y="1341"
     inkscape:window-maximized="1"
     inkscape:current-layer="layer1" />
  <defs
     id="defs1783" />
  <g
     inkscape:label="Layer 1"
     inkscape:groupmode="layer"
     id="layer1"
     transform="translate(-23.865311,-152.22971)">
    <circle
       style="fill:#85cf96;fill-opacity:1;stroke:none;stroke-width:0.0418639;stroke-linecap:round"
       id="circle12788"
       cx="56.631355"
       cy="184.99576"
       r="32.766045" />
    <g
       id="g12802"
       transform="matrix(1.3013486,0,0,1.3013486,-65.31757,116.34738)"
       style="fill:#ffffff;fill-opacity:1">
      <path
         id="path12796"
         style="opacity:0.996344;fill:#ffffff;fill-opacity:1;stroke:#047fa6;stroke-width:0;stroke-linecap:round;stroke-miterlimit:4;stroke-dasharray:none;stroke-opacity:1"
         d="m -14.714041,-96.9525 c 0.748506,0.823877 1.829721,1.339169 3.035664,1.339169 l 9.9367795,2.93e-4 c 2.27000869,0 4.097466,-1.82775 4.097466,-4.097759 l 6.97e-5,-0.135774 -9.6644232,-9.5e-5 c -2.2700087,0 -4.097133,-1.827744 -4.097133,-4.097754 l -5.28e-4,-10.14614 -0.272357,-2e-4 c -2.270009,0 -4.097298,1.82697 -4.097298,4.09698 l -1.78e-4,10.283151 c 0,1.064067 0.401492,2.031179 1.061938,2.758129 z"
         transform="matrix(-0.81526081,0.57909396,-0.84155923,-0.54016484,0,0)" />
      <rect
         style="opacity:0.996344;fill:#ffffff;fill-opacity:1;stroke:#047fa6;stroke-width:0;stroke-linecap:round;stroke-miterlimit:4;stroke-dasharray:none;stroke-opacity:1"
         id="rect12798"
         width="18.13163"
         height="18.477964"
         x="-8.3084507"
         y="-121.32508"
         rx="4.0974927"
         transform="matrix(-0.81526081,0.57909396,-0.84155923,-0.54016484,0,0)" />
      <path
         id="path12800"
         style="opacity:0.996344;fill:#ffffff;fill-opacity:1;stroke:#047fa6;stroke-width:0;stroke-linecap:round;stroke-miterlimit:4;stroke-dasharray:none;stroke-opacity:1"
         d="m -22.18111,-89.718774 c 0.748506,0.823877 1.829253,1.339623 3.035195,1.339623 l 9.9367797,2.93e-4 c 2.178597,0 3.9485567,-1.683819 4.087657,-3.826055 -0.047148,0.0016 -0.093986,0.0032 -0.1415344,0.0032 l -9.9372483,1.6e-4 c -2.270009,0 -4.097133,-1.827743 -4.097133,-4.097752 l -2.91e-4,-10.282695 c 0,-0.0913 0.0043,-0.18164 0.01011,-0.27139 -2.203666,0.0744 -3.955764,1.87131 -3.955764,4.09374 l -1.78e-4,10.283153 c 0,1.064067 0.401961,2.030724 1.062407,2.757675 z"
         transform="matrix(-0.81526081,0.57909396,-0.84155923,-0.54016484,0,0)" />
    </g>
    <g
       id="g12810"
       transform="matrix(1.3013486,0,0,1.3013486,-65.31757,116.34738)"
       style="fill:#ffffff;fill-opacity:1">
      <path
         id="path12804"
         style="opacity:0.996344;fill:#ffffff;fill-opacity:1;stroke:#047fa6;stroke-width:0;stroke-linecap:round;stroke-miterlimit:4;stroke-dasharray:none;stroke-opacity:1"
         d="m -14.714041,-96.9525 c 0.748506,0.823877 1.829721,1.339169 3.035664,1.339169 l 9.9367795,2.93e-4 c 2.27000869,0 4.097466,-1.82775 4.097466,-4.097759 l 6.97e-5,-0.135774 -9.6644232,-9.5e-5 c -2.2700087,0 -4.097133,-1.827744 -4.097133,-4.097754 l -5.28e-4,-10.14614 -0.272357,-2e-4 c -2.270009,0 -4.097298,1.82697 -4.097298,4.09698 l -1.78e-4,10.283151 c 0,1.064067 0.401492,2.031179 1.061938,2.758129 z"
         transform="matrix(-0.81526081,0.57909396,-0.84155923,-0.54016484,0,0)" />
      <rect
         style="opacity:0.996344;fill:#ffffff;fill-opacity:1;stroke:#047fa6;stroke-width:0;stroke-linecap:round;stroke-miterlimit:4;stroke-dasharray:none;stroke-opacity:1"
         id="rect12806"
         width="18.13163"
         height="18.477964"
         x="-8.3084507"
         y="-121.32508"
         rx="4.0974927"
         transform="matrix(-0.81526081,0.57909396,-0.84155923,-0.54016484,0,0)" />
      <path
         id="path12808"
         style="opacity:0.996344;fill:#ffffff;fill-opacity:1;stroke:#047fa6;stroke-width:0;stroke-linecap:round;stroke-miterlimit:4;stroke-dasharray:none;stroke-opacity:1"
         d="m -22.18111,-89.718774 c 0.748506,0.823877 1.829253,1.339623 3.035195,1.339623 l 9.9367797,2.93e-4 c 2.178597,0 3.9485567,-1.683819 4.087657,-3.826055 -0.047148,0.0016 -0.093986,0.0032 -0.1415344,0.0032 l -9.9372483,1.6e-4 c -2.270009,0 -4.097133,-1.827743 -4.097133,-4.097752 l -2.91e-4,-10.282695 c 0,-0.0913 0.0043,-0.18164 0.01011,-0.27139 -2.203666,0.0744 -3.955764,1.87131 -3.955764,4.09374 l -1.78e-4,10.283153 c 0,1.064067 0.401961,2.030724 1.062407,2.757675 z"
         transform="matrix(-0.81526081,0.57909396,-0.84155923,-0.54016484,0,0)" />
    </g>
  </g>
</svg>
