<?xml version="1.0" encoding="UTF-8" standalone="no"?>
<svg
   version="1.1"
   viewBox="-5 -10 80.000771 58.944363"
   id="svg8"
   sodipodi:docname="noun-book-7442011.svg"
   width="80.000771"
   height="58.944363"
   inkscape:version="1.1.2 (0a00cf5339, 2022-02-04)"
   xmlns:inkscape="http://www.inkscape.org/namespaces/inkscape"
   xmlns:sodipodi="http://sodipodi.sourceforge.net/DTD/sodipodi-0.dtd"
   xmlns="http://www.w3.org/2000/svg"
   xmlns:svg="http://www.w3.org/2000/svg">
  <defs
     id="defs12" />
  <sodipodi:namedview
     id="namedview10"
     pagecolor="#ffffff"
     bordercolor="#666666"
     borderopacity="1.0"
     inkscape:pageshadow="2"
     inkscape:pageopacity="0.0"
     inkscape:pagecheckerboard="0"
     showgrid="false"
     fit-margin-top="0"
     fit-margin-left="0"
     fit-margin-right="0"
     fit-margin-bottom="0"
     inkscape:zoom="6.4518519"
     inkscape:cx="39.988519"
     inkscape:cy="36.888634"
     inkscape:window-width="2560"
     inkscape:window-height="1384"
     inkscape:window-x="5120"
     inkscape:window-y="0"
     inkscape:window-maximized="1"
     inkscape:current-layer="svg8" />
  <path
     d="m 73.9715,-2.0559408 c -1.5469,-0.11719 -3.1094,-0.17578 -4.668,-0.17578 v -2.4375 c 0,-0.58203 -0.44531,-1.0664 -1.0273,-1.1094 -1.332,-0.10156 -2.6797,-0.15234 -4.0195,-0.15234 v -2.8359 c 0,-0.57812 -0.44531,-1.0625 -1.0273,-1.1055 -9.957,-0.7500002 -19.887,1.8242 -28.23,7.3125 -8.3438,-5.4922 -18.273,-8.0625002 -28.23,-7.3125 -0.58203,0.04297 -1.0273,0.52734 -1.0273,1.1055 v 2.8398 c -1.3398,0 -2.6875,0.05078 -4.0195,0.15234 v -0.0039 c -0.58203,0.04687 -1.0273,0.52734 -1.0273,1.1094 v 2.4414 c -1.5547,0 -3.1211,0.05859 -4.668,0.17578 -0.57812,0.04297 -1.0234,0.52344 -1.0273,1.10159998 V 47.834559 c 0,0.33203 0.14844,0.64453 0.40234,0.85547 0.25781,0.21094 0.59375,0.29688 0.91797,0.23438 12.727,-2.4609 25.688,-3.4609 38.641,-2.9883 h 0.08203 -0.0039 c 12.953,-0.47266 25.914,0.52734 38.641,2.9883 0.06641,0.01563 0.13672,0.01953 0.21094,0.01953 0.61328,0 1.1094,-0.49609 1.1094,-1.1094 V -0.95046082 c 0,-0.57811998 -0.44922,-1.06249998 -1.0273,-1.10549998 z m -6.8867,-1.5742 V 40.701859 c -8.5312,-0.38672 -17.078,0.16016 -25.484,1.6328 6.6953,-3.1367 14.086,-4.4961 21.461,-3.9453 0.30859,0.02734 0.61328,-0.07813 0.83984,-0.28906 0.23047,-0.21094 0.35938,-0.50781 0.35938,-0.81641 V -3.7081108 c 0.9375,0 1.8828,0.02734 2.8242,0.07813 z m -5.0469,-4.0938 -0.0039,43.8239998 c -9.1172,-0.44141 -18.152,1.8906 -25.926,6.6797 V -0.63024082 C 43.7721,-5.7044408 52.858,-8.1888408 62.034,-7.7240408 Z m -54.074,0 v 0.0039 c 9.1758,-0.46875 18.262,2.0156 25.926,7.08979998 V 42.779759 c -7.1367,-4.3984 -15.348,-6.7305 -23.73,-6.7344 -0.73438,0 -1.4648,0.01953 -2.1992,0.05469 z m -5.0508,4.0938 c 0.94141,-0.05078 1.8867,-0.07813 2.8242,-0.07813 L 5.7412,37.283729 c 0,0.30859 0.12891,0.60547 0.35547,0.81641 0.23047,0.21094 0.53516,0.31641 0.84375,0.28906 7.3711,-0.55078 14.766,0.80859 21.457,3.9453 -8.4062,-1.4766 -16.953,-2.0234 -25.48,-1.6367 z m -5.6953,3.72269998 c 1.1562,-0.06641 2.3164,-0.10156 3.4727,-0.10156 L 0.6944,41.869999 c 0,0.30859 0.125,0.59766 0.34766,0.80859 0.22266,0.21094 0.51953,0.32031 0.82422,0.30469 6.9336,-0.38672 13.883,-0.14453 20.773,0.73047 -8.5312,0.29687 -17.027,1.2305 -25.418,2.7812 z M 72.7728,46.490559 h 0.0039 c -8.3906,-1.5508 -16.887,-2.4844 -25.414,-2.7812 6.8867,-0.875 13.84,-1.1172 20.77,-0.73047 0.30469,0.01563 0.60156,-0.09375 0.82422,-0.30469 0.22266,-0.21094 0.34766,-0.5 0.34766,-0.80859 V -0.01339082 c 1.1562,0 2.3164,0.03516 3.4727,0.10156 z M 12.5618,-0.72844082 c 0.02344,-0.29687998 0.16406,-0.57030998 0.38672,-0.76171998 0.22656,-0.19141 0.51953,-0.28516 0.8125,-0.25781 5.1289,0.40234 10.145,1.68359998 14.84,3.7852 0.26953,0.12109 0.48047,0.34375 0.58594,0.61719 0.10547,0.27734 0.09766,0.58203 -0.02344,0.85156 -0.12109,0.26953 -0.34375,0.48047 -0.62109,0.58594 -0.27734,0.10547 -0.58203,0.09375 -0.85156,-0.02734 -4.4609,-1.9961 -9.2344,-3.21480002 -14.109,-3.59770002 -0.29297,-0.02344 -0.56641,-0.16406 -0.75781,-0.38672 -0.19141,-0.22656 -0.28516,-0.51562 -0.26172,-0.80859 z m 28.273,4.23830002 h 0.0039 c -0.25391,-0.5625 0,-1.2188 0.55859,-1.4688 4.6953,-2.10550002 9.7148,-3.3867 14.844,-3.7891 0.60937,-0.04297 1.1367,0.41016 1.1836,1.01949998 0.05078,0.60938 -0.40234,1.1406 -1.0078,1.1953 -4.875,0.38281 -9.6484,1.60160002 -14.113,3.59770002 -0.55859,0.25391 -1.2148,0 -1.4648,-0.55859 z m -28.273,5.0117 c 0.02344,-0.29688 0.16406,-0.57031 0.38672,-0.76172 0.22656,-0.19141 0.51953,-0.28516 0.8125,-0.25781 5.1289,0.40625 10.145,1.6875 14.84,3.7890998 0.55859,0.25 0.80859,0.90625 0.55859,1.4688 -0.25,0.55859 -0.90625,0.8125 -1.4688,0.55859 -4.4609,-1.9961 -9.2344,-3.2148 -14.109,-3.5976998 -0.29688,-0.02344 -0.56641,-0.16406 -0.75781,-0.39062 -0.19141,-0.22266 -0.28516,-0.51562 -0.26172,-0.80859 z m 28.273,4.2382998 h 0.0039 c -0.25391,-0.5625 0,-1.2188 0.55859,-1.4688 4.6953,-2.1054998 9.7148,-3.3866998 14.844,-3.7890998 0.29687,-0.02734 0.58984,0.06641 0.81641,0.25781 0.22656,0.19141 0.36719,0.46484 0.39062,0.76172 0.02344,0.29688 -0.07422,0.58594 -0.26953,0.8125 -0.19141,0.22266 -0.46875,0.36328 -0.76172,0.38281 -4.875,0.3828098 -9.6484,1.6015998 -14.113,3.6015998 -0.26953,0.11719 -0.57422,0.12891 -0.84766,0.02344 -0.27734,-0.10547 -0.5,-0.31641 -0.61719,-0.58594 z m -28.273,5.0117 c 0.02344,-0.29688 0.16406,-0.57031 0.38672,-0.76172 0.22656,-0.19141 0.51953,-0.28516 0.8125,-0.25781 5.1289,0.40625 10.145,1.6875 14.84,3.793 0.26953,0.12109 0.48047,0.34375 0.58594,0.61719 0.10547,0.27734 0.09766,0.58203 -0.02344,0.85156 -0.12109,0.26953 -0.34375,0.48047 -0.62109,0.58594 -0.27734,0.10547 -0.58203,0.09375 -0.85156,-0.02734 -4.4609,-2 -9.2344,-3.2148 -14.109,-3.5977 -0.29688,-0.02344 -0.57031,-0.16406 -0.76172,-0.39062 -0.19141,-0.22656 -0.28125,-0.51953 -0.25781,-0.8125 z m 28.273,4.2383 h 0.0039 c -0.25391,-0.5625 0,-1.2188 0.55859,-1.4688 4.6953,-2.1055 9.7148,-3.3867 14.844,-3.7891 0.29687,-0.02734 0.58984,0.06641 0.81641,0.25781 0.22656,0.19141 0.36719,0.46484 0.39062,0.76172 0.02344,0.29297 -0.07422,0.58594 -0.26953,0.8125 -0.19141,0.22266 -0.46875,0.35938 -0.76172,0.38281 -4.875,0.38281 -9.6484,1.6016 -14.113,3.5977 -0.26563,0.12109 -0.57422,0.13281 -0.84766,0.02734 -0.27734,-0.10547 -0.5,-0.31641 -0.61719,-0.58594 z m -28.273,5.0195 c 0.02344,-0.29688 0.16406,-0.57031 0.38672,-0.76172 0.22656,-0.19141 0.51953,-0.28516 0.8125,-0.25781 5.1289,0.40234 10.145,1.6875 14.84,3.7891 0.26953,0.12109 0.48047,0.34375 0.58594,0.61719 0.10547,0.27734 0.09766,0.58203 -0.02344,0.85156 -0.12109,0.26953 -0.34375,0.48047 -0.62109,0.58594 -0.27734,0.10547 -0.58203,0.09375 -0.85156,-0.02734 -4.4609,-2 -9.2344,-3.2148 -14.109,-3.5977 -0.29688,-0.02734 -0.56641,-0.16406 -0.75781,-0.39062 -0.19141,-0.22266 -0.28516,-0.51563 -0.26172,-0.80859 z m 44.875,0 c 0.02344,0.29297 -0.07031,0.58594 -0.26172,0.8125 -0.19141,0.22266 -0.46484,0.36328 -0.75781,0.38672 -4.875,0.38281 -9.6484,1.6016 -14.113,3.6016 -0.26953,0.12109 -0.57422,0.12891 -0.85156,0.02344 -0.27344,-0.10547 -0.49609,-0.3125 -0.61719,-0.58203 -0.12109,-0.26953 -0.12891,-0.57812 -0.02344,-0.85156 0.10547,-0.27734 0.31641,-0.5 0.58594,-0.62109 4.6953,-2.1016 9.7148,-3.3828 14.844,-3.7891 0.29297,-0.02344 0.58594,0.07031 0.80859,0.26172 0.22266,0.19141 0.36328,0.46484 0.38672,0.75781 z"
     id="path2"
     style="fill:#cccccc" />
</svg>
