<svg width="240" height="255" viewBox="0 0 240 255" fill="none" xmlns="http://www.w3.org/2000/svg">
<path d="M176.173 208.532C131.395 253.31 52.5838 247.655 8.18696 202.5C-16.2086 177.688 21.6892 161.827 21.6892 127.353C21.6892 92.879 -9.60645 70.5753 8.18696 53C53.2519 8.48752 131.458 1.45869 176.248 46.2483C221.021 91.0219 220.946 163.759 176.173 208.532Z" fill="#8FB0FF"/>
<path d="M201.959 217.549C152.205 267.303 71.0202 267.678 21.6892 217.505C-5.41767 189.935 44.6041 165.653 44.6041 127.348C44.6041 89.0427 1.91824 56.7192 21.6891 37.1907C71.7625 -12.2688 152.275 -12.5378 202.042 37.2295C251.792 86.979 251.708 167.8 201.959 217.549Z" fill="#054CF5"/>
</svg>
