<svg version="1.1" xmlns="http://www.w3.org/2000/svg" width="1000" height="1000">
    
    <path id="body" d="
    M 565 435
    L 590 430
    Q 665 390, 715 470
    Q 720 485, 700 475
    L 680 480
    Q 690 485, 690 495
    L 710 500

    Q 685 510, 670 530
    Q 655 545, 640 580
    
    
    Q 550 690, 445 745
    L 440 740
    L 420 750
    L 430 755
    Q 400 775, 380 765

    L 390 750

    Q 400 725, 395 710
    Q 390 705, 390 690
    Q 375 680, 350 680
    L 345 695

    Q 320 720, 270 660
    Q 330 630, 370 550
    Q 480 500, 565 435
    Z
    " stroke="lightgrey" fill="black" stroke-width="2"/>
    
    <path id="body.details" d="
    M 350 680
    Q 400 670, 410 654
    " stroke="lightgrey" fill="transparent" stroke-width="2"/>
    
    <path id="right.leg" d="
    M 390 750
    Q 400 725, 395 710
    Q 390 705, 390 690
    Q 375 680, 350 680
    L 345 695

    Q 360 695, 375 700
    Q 350 720, 345 735
    L 350 740

    Q 360 725, 380 715
    Q 370 740, 360 750
    L 365 755

    L 380 740

    Q 380 730, 390 720

    Q 390 730, 380 750

    Z
    " stroke="lightgrey" fill="red" stroke-width="2"/>
    
    <path id="right.griffes" d="
    M 345 735
    L 350 740
    Q 340 750, 350 760
    Q 335 750, 345 735
    Z

    M 360 750
    L 365 755
    Q 360 765, 340 765
    Q 350 760, 360 750
    Z

    M 380 750
    L 390 750
    Q 385 760, 380 765
    Q 385 765, 365 770
    Q 380 760, 380 750
    Z
    " stroke="lightgrey" fill="black" stroke-width="2"/>
    
    <path id="left.leg" d="
    M 445 745
    L 440 740
    L 420 750
    L 430 755
    L 460 770
    Q 445 775, 430 770
    L 425 780
    Q 460 790, 470 780
    Q 450 810, 435 810
    L 435 815
    Q 450 820, 460 810
    Q 475 815, 485 790
    Q 480 780, 480 770
    Q 475 760, 460 755
    Z
    M 460 810
    L 475 785
    " stroke="lightgrey" fill="red" stroke-width="2"/>
    
    <path id="left.griffes" d="
    M 430 770
    L 425 780
    Q 420 780, 405 795
    Q 405 780, 430 770
    Z
    M 435 810
    L 435 815
    Q 415 805, 425 795
    Q 425 805, 435 810
    Z
    " stroke="lightgrey" fill="black" stroke-width="2"/>
    
    <circle id="eye" cx="660" cy="460" r="10" stroke="lightgrey" fill="black" stroke-width="2"/>
    
    <path id="beak" d="
    M 715 470
    Q 720 485, 700 475
    L 680 480
    Q 690 485, 690 495
    L 710 500
    Q 730 495, 755 505
    Q 745 475, 715 470
    Z
    " stroke="lightgrey" fill="orange" stroke-width="2"/>
    
    <path id="avant.aile.gauche" d="
    M 670 530
    Q 655 545, 640 580
    Q 550 690, 445 745

    Q 520 730, 580 690
    Q 670 670, 710 630
    Q 810 670, 830 640
    Q 880 650, 850 620

    Q 820 560, 760 540
    Q 730 520, 670 530

    Z
    " stroke="lightgrey" fill="black" stroke-width="2"/>
    
    <path id="aile.gauche" d="
    M 445 745

    Q 520 730, 580 690
    Q 670 670, 710 630
    Q 810 670, 830 640
    Q 880 650, 850 620

    Q 940 700, 975 755
    Q 980 765, 960 760
    Q 935 745, 910 710

    Q 970 790, 990 830
    Q 1010 860, 970 850
    Q 950 830, 930 800

    Q 965 865, 980 900
    Q 990 945, 950 920
    Q 935 900, 920 860
    
    Q 935 925, 950 960
    Q 945 985, 920 970
    Q 905 950, 890 910

    Q 890 950, 900 980
    Q 890 1015, 860 980
    L 850 960

    Q 830 990, 810 950
    Q 780 960, 760 925
    Q 735 940, 720 910
    Q 700 925, 685 900
    Q 650 900, 640 870
    Q 600 860, 540 820
    Q 520 830, 485 790
    Q 480 780, 480 770
    Q 475 760, 460 755

    Z
    " stroke="lightgrey" fill="black" stroke-width="2"/>
    
    <path id="avant.aile.droite" d="
    M 370 550
    Q 480 500, 565 435
    Q 555 420, 555 400
    Q 565 270, 480 230
    Q 450 220, 440 250
    Q 420 270, 420 330
    Q 340 430, 340 550
    Q 300 580, 270 660

    Q 330 630, 370 550
    Z
    " stroke="lightgrey" fill="black" stroke-width="2"/>
    
    <path id="aile.droite" d="
    M 480 230
    Q 450 220, 440 250
    Q 420 270, 420 330
    Q 340 430, 340 550
    Q 300 580, 270 590
    Q 250 600, 250 575
    Q 190 550, 190 485
    Q 135 430, 130 360
    Q 110 350, 120 320
    Q 90 310, 100 275
    Q 70 260, 80 230
    Q 60 220, 50 210
    Q 30 180, 70 180
    Q 10 150, 10 140
    Q 5 120, 25 120
    Q 90 140, 130 150
    Q 65 120, 30 80
    Q 15 60, 40 60
    Q 120 100, 200 130
    Q 90 70, 70 30
    Q 65 5, 80 10
    Q 200 90, 290 130
    Q 170 55, 165 15
    Q 170 0, 180 5
    Q 295 100, 390 160
    Q 345 130, 320 90
    Q 315 75, 330 80
    Q 420 150, 480 230
    Z
    " stroke="lightgrey" fill="black" stroke-width="2"/>
    
    <path id="queue.petite" d="
    M 345 695
    Q 320 720, 270 660

    Q 200 730, 160 790
    Q 155 805, 180 800
    Q 160 840, 200 830
    Q 200 850, 230 840
    Q 250 830, 280, 800
    Q 280 820, 310 800
    Q 320 795, 340 770
    Q 340 790, 365 770

    Q 380 760, 380 750
    Q 390 730, 390 720
    Q 380 730, 380 740
    L 365 755
    Q 360 765, 340 765
    Q 350 760, 360 750
    Q 370 740, 380 715
    Q 360 725, 350 740
    Q 340 750, 350 760
    Q 335 750, 345 735
    Q 350 720, 375 700
    Q 360 695, 345 695

    Z
    " stroke="lightgrey" fill="black" stroke-width="2"/>

    <path id="queue" d="
    M 270 660

    Q 200 730, 160 790
    Q 155 805, 180 800
    Q 160 840, 200 830
    Q 200 850, 230 840
    Q 250 830, 280, 800
    Q 280 820, 310 800
    Q 320 795, 340 770
    Q 340 790, 365 770
    Q 385 765, 380 765
    Q 340 850, 295 930
    Q 270 960, 245 935
    Q 220 965, 190 940
    Q 170 965, 140 945
    Q 110 965, 80 940
    Q 35 940, 50 890
    Q 10 865, 50 840
    Q -15 825, 35 785
    Q -15 770, 10 755
    Q 100 735, 270 660

    Z
    " stroke="lightgrey" fill="black" stroke-width="2"/>

</svg>