<?xml version="1.0" encoding="UTF-8" standalone="no"?>
<svg
   xmlns:dc="http://purl.org/dc/elements/1.1/"
   xmlns:cc="http://creativecommons.org/ns#"
   xmlns:rdf="http://www.w3.org/1999/02/22-rdf-syntax-ns#"
   xmlns:svg="http://www.w3.org/2000/svg"
   xmlns="http://www.w3.org/2000/svg"
   xmlns:sodipodi="http://sodipodi.sourceforge.net/DTD/sodipodi-0.dtd"
   xmlns:inkscape="http://www.inkscape.org/namespaces/inkscape"
   version="1.1"
   width="228.73473"
   height="233.33685"
   viewBox="0 0 686.20416 700.01053"
   id="svg56"
   sodipodi:docname="logo.svg"
   inkscape:version="0.92.5 (2060ec1f9f, 2020-04-08)">
  <metadata
     id="metadata62">
    <rdf:RDF>
      <cc:Work
         rdf:about="">
        <dc:format>image/svg+xml</dc:format>
        <dc:type
           rdf:resource="http://purl.org/dc/dcmitype/StillImage" />
        <dc:title></dc:title>
      </cc:Work>
    </rdf:RDF>
  </metadata>
  <defs
     id="defs60" />
  <sodipodi:namedview
     pagecolor="#ffffff"
     bordercolor="#666666"
     borderopacity="1"
     objecttolerance="10"
     gridtolerance="10"
     guidetolerance="10"
     inkscape:pageopacity="0"
     inkscape:pageshadow="2"
     inkscape:window-width="1449"
     inkscape:window-height="1126"
     id="namedview58"
     showgrid="false"
     inkscape:zoom="2.5173333"
     inkscape:cx="181.99504"
     inkscape:cy="145.27989"
     inkscape:window-x="1273"
     inkscape:window-y="155"
     inkscape:window-maximized="0"
     inkscape:current-layer="svg56"
     fit-margin-left="-51"
     fit-margin-top="0"
     fit-margin-right="-3"
     fit-margin-bottom="0"
     scale-x="3" />
  <rect
     width="704.50488"
     height="700.01056"
     id="rect2"
     x="-9.3007107"
     y="0"
     style="opacity:0;fill:#ffffff;fill-opacity:1;stroke-width:0.46816942" />
  <g
     transform="matrix(0.66666667,0,0,0.66666667,-153.16,35.995599)"
     id="g54">
    <svg
       viewBox="0 0 396 248"
       data-background-color="#efefef"
       preserveAspectRatio="xMidYMid meet"
       height="939"
       width="1500"
       version="1.1"
       id="svg52">
      <g
         id="tight-bounds"
         transform="translate(0.24,0.4)">
        <svg
           viewBox="0 0 395.52 247.2"
           height="247.2"
           width="395.51999"
           version="1.1"
           id="svg47">
          <g
             id="g6">
            <svg
               version="1.1"
               id="svg4"
               width="100%"
               height="100%" />
          </g>
          <g
             id="g43">
            <svg
               viewBox="0 0 395.52 247.2"
               height="247.2"
               width="395.51999"
               version="1.1"
               id="svg41">
              <g
                 transform="translate(75.54432,98.441607)"
                 id="g35">
                <svg
                   viewBox="0 0 244.43136 50.316786"
                   height="50.316788"
                   width="244.43137"
                   version="1.1"
                   id="svg33">
                  <g
                     id="g31">
                    <svg
                       viewBox="0 0 244.43136 50.316786"
                       height="50.316788"
                       width="244.43137"
                       version="1.1"
                       id="svg29">
                      <g
                         id="g27">
                        <svg
                           viewBox="0 0 244.43136 50.316786"
                           height="50.316788"
                           width="244.43137"
                           version="1.1"
                           id="svg25">
                          <g
                             id="g21">
                            <svg
                               viewBox="0 0 244.43136 50.316786"
                               height="50.316788"
                               width="244.43137"
                               version="1.1"
                               id="svg19">
                              <g
                                 id="textblocktransform">
                                <svg
                                   viewBox="0 0 244.43136 50.316786"
                                   height="50.316788"
                                   width="244.43137"
                                   id="textblock"
                                   version="1.1">
                                <g
                                   id="g15">
                                <svg
                                   viewBox="0 0 244.43136 50.316786"
                                   height="50.316788"
                                   width="244.43137"
                                   version="1.1"
                                   id="svg13">
                                <g
                                   id="g11">
                                <svg
                                   width="244.43137"
                                   viewBox="5.05 -39.8 196.49 40.45"
                                   height="50.316788"
                                   data-palette-color="#d94e28"
                                   version="1.1"
                                   id="svg9">
                                <path
                                   d="m 9.65,0 h -4.6 v -36.65 h 4.6 v 18.4 h 0.1 l 15.35,-18.4 h 5.25 L 18.85,-22.75 32.1,0 h -5.15 l -11,-19.1 -6.3,7.5 z M 46.9,0.65 v 0 q -3.3,0 -6.2,-1.68 -2.9,-1.67 -4.63,-4.85 -1.72,-3.17 -1.72,-7.67 v 0 q 0,-4.55 1.72,-7.73 1.73,-3.17 4.63,-4.87 2.9,-1.7 6.2,-1.7 v 0 q 2.5,0 4.77,0.95 2.28,0.95 4.03,2.8 1.75,1.85 2.75,4.5 1,2.65 1,6.05 v 0 q 0,4.5 -1.75,7.67 -1.75,3.18 -4.6,4.85 -2.85,1.68 -6.2,1.68 z m 0,-3.8 v 0 q 2.35,0 4.12,-1.3 1.78,-1.3 2.78,-3.65 1,-2.35 1,-5.45 v 0 q 0,-3.15 -1,-5.5 -1,-2.35 -2.78,-3.65 Q 49.25,-24 46.9,-24 v 0 q -2.35,0 -4.13,1.3 -1.77,1.3 -2.75,3.65 -0.97,2.35 -0.97,5.5 v 0 q 0,3.1 0.97,5.45 0.98,2.35 2.75,3.65 1.78,1.3 4.13,1.3 z M 71.25,0 h -4.61 v -27.15 h 3.75 l 0.45,3.95 h 0.11 q 1.8,-1.95 3.92,-3.3 2.13,-1.35 4.53,-1.35 v 0 q 3.15,0 4.9,1.4 1.75,1.4 2.6,3.8 v 0 q 2.15,-2.3 4.32,-3.75 2.18,-1.45 4.68,-1.45 v 0 q 4.15,0 6.17,2.72 2.02,2.73 2.02,7.93 v 0 V 0 h -4.54 v -16.6 q 0,-3.85 -1.23,-5.55 -1.23,-1.7 -3.82,-1.7 v 0 q -1.55,0 -3.23,1.02 -1.68,1.03 -3.62,3.13 v 0 V 0 h -4.56 v -16.6 q 0,-3.85 -1.22,-5.55 -1.22,-1.7 -3.82,-1.7 v 0 q -1.55,0 -3.25,1.02 -1.71,1.03 -3.55,3.13 v 0 z m 46.74,0 h -4.6 v -36.65 h 10.45 q 4.1,0 7.2,1.02 3.1,1.03 4.8,3.38 1.7,2.35 1.7,6.35 v 0 q 0,3.85 -1.7,6.35 -1.7,2.5 -4.75,3.72 -3.05,1.23 -7.05,1.23 v 0 h -6.05 z m 0,-32.9 v 14.55 h 5.45 q 4.8,0 7.15,-1.8 2.35,-1.8 2.35,-5.75 v 0 q 0,-4 -2.42,-5.5 -2.43,-1.5 -7.28,-1.5 v 0 z m 31.4,33.55 v 0 q -1.7,0 -2.75,-0.7 -1.05,-0.7 -1.55,-2.08 -0.5,-1.37 -0.5,-3.27 v 0 -34.4 h 4.6 v 34.7 q 0,1.05 0.37,1.5 0.38,0.45 0.88,0.45 v 0 q 0.2,0 0.4,-0.03 0.2,-0.02 0.55,-0.07 v 0 l 0.65,3.5 q -0.5,0.15 -1.1,0.28 -0.6,0.12 -1.55,0.12 z m 19.95,0 v 0 q -3.3,0 -6.2,-1.68 -2.9,-1.67 -4.63,-4.85 -1.72,-3.17 -1.72,-7.67 v 0 q 0,-4.55 1.72,-7.73 1.73,-3.17 4.63,-4.87 2.9,-1.7 6.2,-1.7 v 0 q 2.5,0 4.77,0.95 2.28,0.95 4.03,2.8 1.75,1.85 2.75,4.5 1,2.65 1,6.05 v 0 q 0,4.5 -1.75,7.67 -1.75,3.18 -4.6,4.85 -2.85,1.68 -6.2,1.68 z m 0,-3.8 v 0 q 2.35,0 4.12,-1.3 1.78,-1.3 2.78,-3.65 1,-2.35 1,-5.45 v 0 q 0,-3.15 -1,-5.5 -1,-2.35 -2.78,-3.65 -1.77,-1.3 -4.12,-1.3 v 0 q -2.35,0 -4.13,1.3 -1.77,1.3 -2.75,3.65 -0.97,2.35 -0.97,5.5 v 0 q 0,3.1 0.97,5.45 0.98,2.35 2.75,3.65 1.78,1.3 4.13,1.3 z m 27.15,3.8 v 0 q -2.85,0 -4.55,-1.13 -1.7,-1.12 -2.43,-3.17 -0.72,-2.05 -0.72,-4.75 v 0 -15.05 h -4.05 v -3.45 l 4.3,-0.25 0.5,-7.65 h 3.8 v 7.65 h 7.4 v 3.7 h -7.4 v 15.2 q 0,2.45 0.92,3.83 0.93,1.37 3.28,1.37 v 0 q 0.75,0 1.6,-0.23 0.85,-0.22 1.5,-0.52 v 0 l 0.9,3.45 q -1.15,0.4 -2.45,0.7 -1.3,0.3 -2.6,0.3 z"
                                   class="wordmark-text-0"
                                   data-fill-palette-color="primary"
                                   id="text-0"
                                   inkscape:connector-curvature="0"
                                   style="opacity:1;fill:#d94e28" />
                                </svg>
                                </g>
                                </svg>
                                </g>
                                </svg>
                              </g>
                            </svg>
                          </g>
                          <g
                             id="g23" />
                        </svg>
                      </g>
                    </svg>
                  </g>
                </svg>
              </g>
              <g
                 id="g39">
                <path
                   d="m 81.291,86.563 a 122.216,122.216 0 0 1 232.938,0 h -4.538 a 117.678,117.678 0 0 0 -223.862,0 h -4.538 m 0,74.074 a 122.216,122.216 0 0 0 232.938,0 h -4.538 a 117.678,117.678 0 0 1 -223.862,0 h -4.538"
                   stroke="transparent"
                   data-fill-palette-color="tertiary"
                   id="path37"
                   inkscape:connector-curvature="0"
                   style="fill:#d94e28" />
              </g>
            </svg>
          </g>
          <defs
             id="defs45" />
        </svg>
        <rect
           width="395.51999"
           height="247.2"
           visibility="hidden"
           id="rect49"
           x="0"
           y="0"
           style="visibility:hidden;fill:none;stroke:none" />
      </g>
    </svg>
  </g>
</svg>
