<svg width="15" height="15" viewBox="0 0 15 15" fill="none" xmlns="http://www.w3.org/2000/svg">
<g clip-path="url(#clip0_189_871)">
<path fill-rule="evenodd" clip-rule="evenodd" d="M7.5 -6.55671e-07C3.35787 -1.01779e-06 1.01779e-06 3.35786 6.55671e-07 7.5C2.93554e-07 11.6421 3.35786 15 7.5 15C11.6421 15 15 11.6421 15 7.5C15 3.35786 11.6421 -2.93554e-07 7.5 -6.55671e-07ZM6.5 11C6.5 11.5523 6.94772 12 7.5 12C8.05228 12 8.5 11.5523 8.5 11L8.5 7.5C8.5 6.94772 8.05229 6.5 7.5 6.5C6.94772 6.5 6.5 6.94772 6.5 7.5L6.5 11ZM6.5 4.5C6.5 5.05228 6.94772 5.5 7.5 5.5C8.05229 5.5 8.5 5.05228 8.5 4.5L8.5 4C8.5 3.44772 8.05229 3 7.5 3C6.94772 3 6.5 3.44772 6.5 4L6.5 4.5Z" fill="#3B90AB"/>
</g>
<defs>
<clipPath id="clip0_189_871">
<rect width="15" height="15" fill="white"/>
</clipPath>
</defs>
</svg>
