<svg width="12" height="12" viewBox="0 0 12 12" fill="none" xmlns="http://www.w3.org/2000/svg">
<path d="M1 1L11 11" stroke="black"/>
<path fill-rule="evenodd" clip-rule="evenodd" d="M5.02101 3.60679C5.33618 3.53687 5.66378 3.5 6 3.5C8.48528 3.5 10.5 5.51472 10.5 8H11.5C11.5 4.96243 9.03757 2.5 6 2.5C5.3739 2.5 4.77224 2.60462 4.21153 2.79732L5.02101 3.60679ZM2.41478 3.829C1.24241 4.83764 0.5 6.33212 0.5 8H1.5C1.5 6.60821 2.13185 5.36399 3.12434 4.53855L2.41478 3.829ZM4.90917 6.32339C4.36182 6.68023 4 7.29786 4 8C4 9.10457 4.89543 10 6 10C6.70214 10 7.31977 9.63818 7.67661 9.09083L4.90917 6.32339Z" fill="black"/>
</svg>
