<svg width="512" height="512" viewBox="0 0 512 512" fill="none" xmlns="http://www.w3.org/2000/svg">
<rect y="110" width="512" height="291" rx="64" fill="#0F1011"/>
<path d="M300 293.5L332.703 309.543C337.148 311.724 342.352 311.724 346.797 309.543L372.453 296.957C376.898 294.776 382.102 294.776 386.547 296.957L412.203 309.543C416.648 311.724 421.852 311.724 426.297 309.543L459 293.5" stroke="#054CF5" stroke-width="7"/>
<path d="M294.284 284.007C290.782 284.007 287.686 283.435 284.995 282.292C282.327 281.125 280.231 279.362 278.707 277.004C277.182 274.646 276.42 271.645 276.42 268.001C276.42 265 276.932 262.44 277.957 260.32C278.981 258.176 280.41 256.426 282.244 255.068C284.078 253.71 286.209 252.674 288.639 251.96C291.092 251.245 293.736 250.781 296.57 250.566C299.643 250.328 302.108 250.043 303.966 249.709C305.847 249.352 307.205 248.864 308.038 248.244C308.872 247.601 309.289 246.756 309.289 245.708V245.565C309.289 244.136 308.741 243.04 307.645 242.278C306.55 241.516 305.145 241.135 303.43 241.135C301.548 241.135 300.012 241.551 298.821 242.385C297.654 243.195 296.951 244.445 296.713 246.136H278.564C278.802 242.802 279.862 239.729 281.744 236.919C283.649 234.085 286.424 231.822 290.068 230.131C293.712 228.416 298.261 227.558 303.716 227.558C307.645 227.558 311.171 228.023 314.291 228.952C317.411 229.857 320.066 231.131 322.258 232.775C324.449 234.394 326.116 236.3 327.259 238.491C328.427 240.658 329.01 243.016 329.01 245.565V283.149H310.575V275.432H310.146C309.051 277.481 307.717 279.136 306.145 280.398C304.597 281.661 302.822 282.578 300.822 283.149C298.845 283.721 296.665 284.007 294.284 284.007ZM300.715 271.574C302.215 271.574 303.62 271.264 304.93 270.645C306.264 270.026 307.348 269.132 308.181 267.965C309.015 266.798 309.432 265.381 309.432 263.714V259.141C308.908 259.355 308.348 259.558 307.753 259.748C307.181 259.939 306.562 260.117 305.895 260.284C305.252 260.451 304.561 260.606 303.823 260.749C303.108 260.892 302.358 261.023 301.572 261.142C300.048 261.38 298.797 261.773 297.821 262.321C296.868 262.845 296.153 263.5 295.677 264.286C295.224 265.048 294.998 265.905 294.998 266.858C294.998 268.382 295.534 269.549 296.606 270.359C297.678 271.169 299.047 271.574 300.715 271.574Z" fill="#9BC6FF"/>
<path d="M352.421 228.273L360.424 245.279L368.855 228.273H388.433L373.714 255.711L389.148 283.149H369.712L360.424 265.715L351.42 283.149H331.699L347.276 255.711L332.7 228.273H352.421Z" fill="#9BC6FF"/>
<path d="M412.973 284.15C407.019 284.15 401.922 282.971 397.682 280.613C393.443 278.231 390.192 274.92 387.929 270.681C385.666 266.417 384.535 261.475 384.535 255.854C384.535 250.233 385.666 245.303 387.929 241.063C390.192 236.8 393.443 233.489 397.682 231.131C401.922 228.749 407.019 227.558 412.973 227.558C418.928 227.558 424.025 228.749 428.264 231.131C432.504 233.489 435.755 236.8 438.018 241.063C440.28 245.303 441.412 250.233 441.412 255.854C441.412 261.475 440.28 266.417 438.018 270.681C435.755 274.92 432.504 278.231 428.264 280.613C424.025 282.971 418.928 284.15 412.973 284.15ZM413.116 269.573C414.783 269.573 416.224 269.013 417.439 267.894C418.654 266.775 419.595 265.179 420.262 263.107C420.928 261.034 421.262 258.569 421.262 255.711C421.262 252.829 420.928 250.364 420.262 248.316C419.595 246.244 418.654 244.648 417.439 243.528C416.224 242.409 414.783 241.849 413.116 241.849C411.354 241.849 409.841 242.409 408.579 243.528C407.317 244.648 406.352 246.244 405.685 248.316C405.018 250.364 404.685 252.829 404.685 255.711C404.685 258.569 405.018 261.034 405.685 263.107C406.352 265.179 407.317 266.775 408.579 267.894C409.841 269.013 411.354 269.573 413.116 269.573Z" fill="#9BC6FF"/>
<path d="M445.39 283.149V228.273H464.54V238.705H465.111C466.112 234.847 467.696 232.024 469.863 230.238C472.054 228.452 474.615 227.558 477.544 227.558C478.402 227.558 479.247 227.63 480.081 227.773C480.938 227.892 481.76 228.071 482.546 228.309V245.136C481.57 244.803 480.367 244.552 478.938 244.386C477.509 244.219 476.282 244.136 475.258 244.136C473.329 244.136 471.59 244.576 470.042 245.458C468.517 246.315 467.315 247.53 466.433 249.102C465.552 250.65 465.111 252.472 465.111 254.568V283.149H445.39Z" fill="#9BC6FF"/>
<path d="M199.486 336.532C154.708 381.31 75.8969 375.655 31.5 330.5C7.10441 305.688 45.0022 289.827 45.0022 255.353C45.0022 220.879 13.7066 198.575 31.5 181C76.5649 136.488 154.771 129.459 199.561 174.248C244.334 219.022 244.259 291.759 199.486 336.532Z" fill="#8FB0FF"/>
<path d="M225.272 345.549C175.518 395.303 94.3332 395.678 45.0022 345.505C17.8954 317.935 67.9171 293.653 67.9171 255.348C67.9171 217.043 25.2313 184.719 45.0022 165.191C95.0755 115.731 175.588 115.462 225.355 165.229C275.105 214.979 275.021 295.8 225.272 345.549Z" fill="#054CF5"/>
</svg>
