<svg width="519" height="255" viewBox="0 0 519 255" fill="none" xmlns="http://www.w3.org/2000/svg">
<path d="M295.037 168.903L336.759 189.37C341.204 191.551 346.407 191.551 350.852 189.37L385.527 172.36C389.972 170.179 395.176 170.179 399.621 172.36L434.296 189.37C438.741 191.551 443.945 191.551 448.39 189.37L490.112 168.903" stroke="#0044E6" stroke-width="7"/>
<path d="M288.024 157.256C283.728 157.256 279.929 156.554 276.627 155.152C273.354 153.72 270.783 151.557 268.913 148.664C267.042 145.771 266.107 142.089 266.107 137.619C266.107 133.937 266.736 130.795 267.992 128.195C269.249 125.565 271.002 123.417 273.252 121.751C275.502 120.085 278.117 118.814 281.098 117.938C284.108 117.061 287.352 116.491 290.829 116.228C294.599 115.936 297.623 115.585 299.902 115.176C302.211 114.738 303.876 114.139 304.899 113.379C305.922 112.59 306.433 111.553 306.433 110.267V110.092C306.433 108.338 305.761 106.994 304.417 106.059C303.073 105.124 301.349 104.656 299.245 104.656C296.936 104.656 295.051 105.168 293.59 106.191C292.158 107.184 291.296 108.718 291.004 110.793H268.737C269.029 106.702 270.33 102.932 272.638 99.4841C274.976 96.0068 278.38 93.2307 282.851 91.1559C287.322 89.052 292.904 88 299.595 88C304.417 88 308.742 88.5698 312.57 89.7095C316.398 90.8199 319.656 92.3833 322.345 94.3996C325.033 96.3866 327.078 98.7244 328.481 101.413C329.913 104.072 330.629 106.965 330.629 110.092V156.204H308.011V146.736H307.485C306.141 149.249 304.505 151.28 302.576 152.828C300.677 154.377 298.5 155.502 296.045 156.204C293.62 156.905 290.946 157.256 288.024 157.256ZM295.913 142.002C297.754 142.002 299.479 141.622 301.086 140.862C302.722 140.102 304.052 139.007 305.074 137.575C306.097 136.143 306.609 134.404 306.609 132.359V126.748C305.966 127.011 305.279 127.259 304.549 127.493C303.847 127.727 303.087 127.946 302.269 128.151C301.48 128.355 300.633 128.545 299.727 128.72C298.85 128.896 297.93 129.057 296.965 129.203C295.095 129.495 293.561 129.977 292.363 130.649C291.194 131.292 290.318 132.096 289.733 133.06C289.178 133.995 288.9 135.047 288.9 136.216C288.9 138.086 289.558 139.518 290.873 140.511C292.188 141.505 293.868 142.002 295.913 142.002Z" fill="#054EFB"/>
<path d="M359.351 88.8766L369.17 109.741L379.514 88.8766H403.534L385.475 122.54L404.411 156.204H380.566L369.17 134.813L358.124 156.204H333.928L353.039 122.54L335.156 88.8766H359.351Z" fill="#054EFB"/>
<path d="M433.642 157.431C426.337 157.431 420.083 155.984 414.882 153.091C409.68 150.169 405.692 146.107 402.915 140.906C400.139 135.675 398.751 129.612 398.751 122.715C398.751 115.819 400.139 109.77 402.915 104.569C405.692 99.338 409.68 95.2762 414.882 92.3833C420.083 89.4611 426.337 88 433.642 88C440.948 88 447.201 89.4611 452.402 92.3833C457.604 95.2762 461.593 99.338 464.369 104.569C467.145 109.77 468.533 115.819 468.533 122.715C468.533 129.612 467.145 135.675 464.369 140.906C461.593 146.107 457.604 150.169 452.402 153.091C447.201 155.984 440.948 157.431 433.642 157.431ZM433.817 139.547C435.863 139.547 437.631 138.86 439.121 137.487C440.612 136.114 441.766 134.156 442.584 131.613C443.402 129.071 443.811 126.047 443.811 122.54C443.811 119.004 443.402 115.98 442.584 113.467C441.766 110.924 440.612 108.967 439.121 107.593C437.631 106.22 435.863 105.533 433.817 105.533C431.655 105.533 429.799 106.22 428.251 107.593C426.702 108.967 425.518 110.924 424.7 113.467C423.882 115.98 423.473 119.004 423.473 122.54C423.473 126.047 423.882 129.071 424.7 131.613C425.518 134.156 426.702 136.114 428.251 137.487C429.799 138.86 431.655 139.547 433.817 139.547Z" fill="#054EFB"/>
<path d="M473.414 156.204V88.8766H496.908V101.676H497.61C498.837 96.9419 500.78 93.4791 503.439 91.2874C506.128 89.0958 509.269 88 512.863 88C513.915 88 514.953 88.0877 515.976 88.263C517.028 88.4091 518.036 88.6283 519 88.9205V109.566C517.802 109.157 516.326 108.85 514.573 108.645C512.82 108.441 511.315 108.338 510.058 108.338C507.691 108.338 505.558 108.879 503.659 109.96C501.788 111.012 500.313 112.502 499.231 114.431C498.15 116.33 497.61 118.566 497.61 121.137V156.204H473.414Z" fill="#054EFB"/>
<rect y="94" width="60" height="22" rx="11" fill="#054CF5"/>
<rect y="138" width="60" height="22" rx="11" fill="#054CF5"/>
<path d="M189.173 208.532C144.395 253.31 65.5838 247.655 21.187 202.5C-3.20864 177.688 34.6892 161.827 34.6892 127.353C34.6892 92.879 3.39355 70.5753 21.187 53C66.2519 8.48752 144.458 1.45869 189.248 46.2483C234.021 91.0219 233.946 163.759 189.173 208.532Z" fill="#8FB0FF"/>
<path d="M214.959 217.549C165.205 267.303 84.0202 267.678 34.6892 217.505C7.58233 189.935 57.6041 165.653 57.6041 127.348C57.6041 89.0427 14.9182 56.7192 34.6891 37.1907C84.7625 -12.2688 165.275 -12.5378 215.042 37.2295C264.792 86.979 264.708 167.8 214.959 217.549Z" fill="url(#paint0_linear_19_33)"/>
<defs>
<linearGradient id="paint0_linear_19_33" x1="132.656" y1="0" x2="132.656" y2="255" gradientUnits="userSpaceOnUse">
<stop stop-color="#054CF5"/>
<stop offset="0.675" stop-color="#1057FF"/>
<stop offset="1" stop-color="#457CFF"/>
</linearGradient>
</defs>
</svg>
